<?xml version="1.0" encoding="UTF-8"?>
<svg width="17.877mm" height="17.876mm" version="1.1" viewBox="0 0 17.877 17.876" xmlns="http://www.w3.org/2000/svg" xmlns:cc="http://creativecommons.org/ns#" xmlns:dc="http://purl.org/dc/elements/1.1/" xmlns:rdf="http://www.w3.org/1999/02/22-rdf-syntax-ns#">
<rect x="0.050"  y="10.716" width="3.5554" height="3.5554"  fill="none" stroke="#000" stroke-linecap="square" stroke-width=".099263" style="paint-order:stroke fill markers"/>
<rect x="3.606"  y="10.716" width="3.5554" height="3.5554"  fill="none" stroke="#000" stroke-linecap="square" stroke-width=".099263" style="paint-order:stroke fill markers"/>
<rect x="7.161"  y="10.716" width="3.5554" height="3.5554"  fill="none" stroke="#000" stroke-linecap="square" stroke-width=".099263" style="paint-order:stroke fill markers"/>
<rect x="0.050"  y="7.161" width="3.5554" height="3.5554"  fill="none" stroke="#000" stroke-linecap="square" stroke-width=".099263" style="paint-order:stroke fill markers"/>
<rect x="3.606"  y="7.161" width="3.5554" height="3.5554"  fill="none" stroke="#000" stroke-linecap="square" stroke-width=".099263" style="paint-order:stroke fill markers"/>
<rect x="7.161"  y="7.161" width="3.5554" height="3.5554"  fill="none" stroke="#000" stroke-linecap="square" stroke-width=".099263" style="paint-order:stroke fill markers"/>
<rect x="0.050"  y="14.271" width="3.5554" height="3.5554"  fill="none" stroke="#000" stroke-linecap="square" stroke-width=".099263" style="paint-order:stroke fill markers"/>
<rect x="3.606"  y="14.271" width="3.5554" height="3.5554"  fill="none" stroke="#000" stroke-linecap="square" stroke-width=".099263" style="paint-order:stroke fill markers"/>
<rect x="7.161"  y="14.271" width="3.5554" height="3.5554"  fill="none" stroke="#000" stroke-linecap="square" stroke-width=".099263" style="paint-order:stroke fill markers"/>
<rect x="0.050"  y="3.605" width="3.5554" height="3.5554"  fill="none" stroke="#000" stroke-linecap="square" stroke-width=".099263" style="paint-order:stroke fill markers"/>
<rect x="3.606"  y="3.605" width="3.5554" height="3.5554"  fill="none" stroke="#000" stroke-linecap="square" stroke-width=".099263" style="paint-order:stroke fill markers"/>
<rect x="0.050"  y="0.050" width="3.5554" height="3.5554"  fill="none" stroke="#000" stroke-linecap="square" stroke-width=".099263" style="paint-order:stroke fill markers"/>
<rect x="3.606"  y="0.050" width="3.5554" height="3.5554"  fill="none" stroke="#000" stroke-linecap="square" stroke-width=".099263" style="paint-order:stroke fill markers"/>
<rect x="7.161"  y="3.605" width="3.5554" height="3.5554"  fill="none" stroke="#000" stroke-linecap="square" stroke-width=".099263" style="paint-order:stroke fill markers"/>
<rect x="7.161"  y="0.050" width="3.5554" height="3.5554"  fill="none" stroke="#000" stroke-linecap="square" stroke-width=".099263" style="paint-order:stroke fill markers"/>
<rect x="10.717" y="10.716" width="3.5554" height="3.5554"  fill="none" stroke="#000" stroke-linecap="square" stroke-width=".099263" style="paint-order:stroke fill markers"/>
<rect x="14.272" y="10.716" width="3.5554" height="3.5554"  fill="none" stroke="#000" stroke-linecap="square" stroke-width=".099263" style="paint-order:stroke fill markers"/>
<rect x="10.717" y="7.161" width="3.5554" height="3.5554"  fill="none" stroke="#000" stroke-linecap="square" stroke-width=".099263" style="paint-order:stroke fill markers"/>
<rect x="14.272" y="7.161" width="3.5554" height="3.5554"  fill="none" stroke="#000" stroke-linecap="square" stroke-width=".099263" style="paint-order:stroke fill markers"/>
<rect x="10.717" y="14.271" width="3.5554" height="3.5554"  fill="none" stroke="#000" stroke-linecap="square" stroke-width=".099263" style="paint-order:stroke fill markers"/>
<rect x="14.272" y="14.271" width="3.5554" height="3.5554"  fill="none" stroke="#000" stroke-linecap="square" stroke-width=".099263" style="paint-order:stroke fill markers"/>
<rect x="10.717" y="3.605" width="3.5554" height="3.5554"  fill="none" stroke="#000" stroke-linecap="square" stroke-width=".099263" style="paint-order:stroke fill markers"/>
<rect x="14.272" y="3.605" width="3.5554" height="3.5554"  fill="none" stroke="#000" stroke-linecap="square" stroke-width=".099263" style="paint-order:stroke fill markers"/>
<rect x="10.717" y="0.050" width="3.5554" height="3.5554"  fill="none" stroke="#000" stroke-linecap="square" stroke-width=".099263" style="paint-order:stroke fill markers"/>
<rect x="14.272" y="0.050" width="3.5554" height="3.5554"  fill="none" stroke="#000" stroke-linecap="square" stroke-width=".099263" style="paint-order:stroke fill markers"/>
<path d="m9.979 5.415a1.0423 1.0423 0 0 1-1.066 1.0097 1.0423 1.0423 0 0 1-1.0179-1.0581 1.0423 1.0423 0 0 1 1.0502-1.0261 1.0423 1.0423 0 0 1 1.0342 1.0422" stroke-width=".29779" fill="none" stroke="#000" stroke-linecap="square" style="paint-order:stroke fill markers"/>
<path d="m8.786 7.742c0.0424 0.33333 0.0352 0.61939-4e-3 0.86622l-0.36958 0.23134 0.0499 0.0581 0.27498-0.0734c-0.2689 1.0207-1.1397 1.2375-1.1397 1.2375l2e-3 0.12887c0.83949-0.21046 1.2416-0.89048 1.4328-1.4452l0.76842-0.20517-0.36586-0.34085-0.30126 0.18857c0.0577-0.25368 0.0684-0.4297 0.0684-0.4297zm-0.64019 0.23284c0.19123 0.8231-0.29934 1.3137-0.29934 1.3137s0.079 0.0124 0.16633 0.0166c0.29695-0.31031 0.61517-1.2056 0.61517-1.2056zm0.91879 1.1768s0.59225 0.53914 0.949 0.98625c0.12786-0.13479 0.26137-0.29519 0.26137-0.29519s-0.57615-0.46567-1.2104-0.69106z"/>
</svg>
