<?xml version="1.0" encoding="UTF-8"?>
<svg width="17.877mm" height="17.876mm" version="1.1" viewBox="0 0 17.877 17.876" xmlns="http://www.w3.org/2000/svg" xmlns:cc="http://creativecommons.org/ns#" xmlns:dc="http://purl.org/dc/elements/1.1/" xmlns:rdf="http://www.w3.org/1999/02/22-rdf-syntax-ns#">
<metadata>
<rdf:RDF>
<cc:Work rdf:about="">
<dc:format>image/svg+xml</dc:format>
<dc:type rdf:resource="http://purl.org/dc/dcmitype/StillImage"/>
<dc:title/>
</cc:Work>
</rdf:RDF>
</metadata>
<g transform="translate(-10.214 -18.278)">
<g transform="translate(-150.49,-102.36)">
<g transform="translate(88.378,57.145)" fill="none" stroke="#000" stroke-linecap="square">
<rect x="72.376" y="74.209" width="3.5554" height="3.5554" stroke-width=".099263" style="paint-order:stroke fill markers"/>
<rect x="75.932" y="74.209" width="3.5554" height="3.5554" stroke-width=".099263" style="paint-order:stroke fill markers"/>
<rect x="79.487" y="74.209" width="3.5554" height="3.5554" stroke-width=".099263" style="paint-order:stroke fill markers"/>
<rect x="72.376" y="70.654" width="3.5554" height="3.5554" stroke-width=".099263" style="paint-order:stroke fill markers"/>
<rect x="75.932" y="70.654" width="3.5554" height="3.5554" stroke-width=".099263" style="paint-order:stroke fill markers"/>
<rect x="79.487" y="70.654" width="3.5554" height="3.5554" stroke-width=".099263" style="paint-order:stroke fill markers"/>
<rect x="72.376" y="77.764" width="3.5554" height="3.5554" stroke-width=".099263" style="paint-order:stroke fill markers"/>
<rect x="75.932" y="77.764" width="3.5554" height="3.5554" stroke-width=".099263" style="paint-order:stroke fill markers"/>
<rect x="79.487" y="77.764" width="3.5554" height="3.5554" stroke-width=".099263" style="paint-order:stroke fill markers"/>
<rect x="72.376" y="67.098" width="3.5554" height="3.5554" stroke-width=".099263" style="paint-order:stroke fill markers"/>
<rect x="75.932" y="67.098" width="3.5554" height="3.5554" stroke-width=".099263" style="paint-order:stroke fill markers"/>
<rect x="72.376" y="63.543" width="3.5554" height="3.5554" stroke-width=".099263" style="paint-order:stroke fill markers"/>
<rect x="75.932" y="63.543" width="3.5554" height="3.5554" stroke-width=".099263" style="paint-order:stroke fill markers"/>
<rect x="79.487" y="67.098" width="3.5554" height="3.5554" stroke-width=".099263" style="paint-order:stroke fill markers"/>
<rect x="79.487" y="63.543" width="3.5554" height="3.5554" stroke-width=".099263" style="paint-order:stroke fill markers"/>
<rect x="83.043" y="74.209" width="3.5554" height="3.5554" stroke-width=".099263" style="paint-order:stroke fill markers"/>
<rect x="86.598" y="74.209" width="3.5554" height="3.5554" stroke-width=".099263" style="paint-order:stroke fill markers"/>
<rect x="83.043" y="70.654" width="3.5554" height="3.5554" stroke-width=".099263" style="paint-order:stroke fill markers"/>
<rect x="86.598" y="70.654" width="3.5554" height="3.5554" stroke-width=".099263" style="paint-order:stroke fill markers"/>
<rect x="83.043" y="77.764" width="3.5554" height="3.5554" stroke-width=".099263" style="paint-order:stroke fill markers"/>
<rect x="86.598" y="77.764" width="3.5554" height="3.5554" stroke-width=".099263" style="paint-order:stroke fill markers"/>
<rect x="83.043" y="67.098" width="3.5554" height="3.5554" stroke-width=".099263" style="paint-order:stroke fill markers"/>
<rect x="86.598" y="67.098" width="3.5554" height="3.5554" stroke-width=".099263" style="paint-order:stroke fill markers"/>
<rect x="83.043" y="63.543" width="3.5554" height="3.5554" stroke-width=".099263" style="paint-order:stroke fill markers"/>
<rect x="86.598" y="63.543" width="3.5554" height="3.5554" stroke-width=".099263" style="paint-order:stroke fill markers"/>
<path d="m82.305 68.908a1.0423 1.0423 0 0 1-1.066 1.0097 1.0423 1.0423 0 0 1-1.0179-1.0581 1.0423 1.0423 0 0 1 1.0502-1.0261 1.0423 1.0423 0 0 1 1.0342 1.0422" stroke-width=".29779" style="paint-order:stroke fill markers"/>
</g>
<path d="m169.49 128.38c0.0424 0.33333 0.0352 0.61939-4e-3 0.86622l-0.36958 0.23134 0.0499 0.0581 0.27498-0.0734c-0.2689 1.0207-1.1397 1.2375-1.1397 1.2375l2e-3 0.12887c0.83949-0.21046 1.2416-0.89048 1.4328-1.4452l0.76842-0.20517-0.36586-0.34085-0.30126 0.18857c0.0577-0.25368 0.0684-0.4297 0.0684-0.4297zm-0.64019 0.23284c0.19123 0.8231-0.29934 1.3137-0.29934 1.3137s0.079 0.0124 0.16633 0.0166c0.29695-0.31031 0.61517-1.2056 0.61517-1.2056zm0.91879 1.1768s0.59225 0.53914 0.949 0.98625c0.12786-0.13479 0.26137-0.29519 0.26137-0.29519s-0.57615-0.46567-1.2104-0.69106z"/>
</g>
</g>
</svg>
