<?xml version="1.0" encoding="UTF-8"?>
<svg width="17.879mm" height="17.875mm" version="1.1" viewBox="0 0 17.879 17.875" xmlns="http://www.w3.org/2000/svg" xmlns:cc="http://creativecommons.org/ns#" xmlns:dc="http://purl.org/dc/elements/1.1/" xmlns:rdf="http://www.w3.org/1999/02/22-rdf-syntax-ns#">
<rect  stroke="#000" x="0.050"  y="10.710" width="3.5554" height="3.5554" fill="none" stroke-linecap="square" stroke-width=".099263" style="paint-order:stroke fill markers"/>
<rect  stroke="#000" x="3.606"  y="10.710" width="3.5554" height="3.5554" fill="none" stroke-linecap="square" stroke-width=".099263" style="paint-order:stroke fill markers"/>
<rect  stroke="#000" x="0.050"  y="7.160" width="3.5554" height="3.5554" fill="none" stroke-linecap="square" stroke-width=".099263" style="paint-order:stroke fill markers"/>
<rect  stroke="#000" x="3.606"  y="7.160" width="3.5554" height="3.5554" fill="none" stroke-linecap="square" stroke-width=".099263" style="paint-order:stroke fill markers"/>
<rect  stroke="#000" x="7.154"  y="7.140" width="3.5554" height="3.5554" fill="#f95" stroke-linecap="square" stroke-width=".099263" style="paint-order:stroke fill markers"/>
<rect  stroke="#000" x="0.050"  y="14.270" width="3.5554" height="3.5554" fill="none" stroke-linecap="square" stroke-width=".099263" style="paint-order:stroke fill markers"/>
<rect  stroke="#000" x="3.606"  y="14.270" width="3.5554" height="3.5554" fill="none" stroke-linecap="square" stroke-width=".099263" style="paint-order:stroke fill markers"/>
<rect  stroke="#000" x="7.164"  y="10.710" width="3.5554" height="3.5554" fill="none" stroke-linecap="square" stroke-width=".099263" style="paint-order:stroke fill markers"/>
<rect  stroke="#000" x="7.164"  y="14.270" width="3.5554" height="3.5554" fill="none" stroke-linecap="square" stroke-width=".099263" style="paint-order:stroke fill markers"/>
<rect  stroke="#000" x="0.050"  y="3.600" width="3.5554" height="3.5554" fill="none" stroke-linecap="square" stroke-width=".099263" style="paint-order:stroke fill markers"/>
<rect  stroke="#000" x="3.606"  y="3.600" width="3.5554" height="3.5554" fill="none" stroke-linecap="square" stroke-width=".099263" style="paint-order:stroke fill markers"/>
<rect  stroke="#000" x="0.050"  y="0.050" width="3.5554" height="3.5554" fill="none" stroke-linecap="square" stroke-width=".099263" style="paint-order:stroke fill markers"/>
<rect  stroke="#000" x="3.606"  y="0.050" width="3.5554" height="3.5554" fill="none" stroke-linecap="square" stroke-width=".099263" style="paint-order:stroke fill markers"/>
<rect  stroke="#000" x="7.164"  y="3.600" width="3.5554" height="3.5554" fill="none" stroke-linecap="square" stroke-width=".099263" style="paint-order:stroke fill markers"/>
<rect  stroke="#000" x="7.164"  y="0.050" width="3.5554" height="3.5554" fill="none" stroke-linecap="square" stroke-width=".099263" style="paint-order:stroke fill markers"/>
<rect  stroke="#000" x="10.714" y="10.710" width="3.5554" height="3.5554" fill="none" stroke-linecap="square" stroke-width=".099263" style="paint-order:stroke fill markers"/>
<rect  stroke="#000" x="14.274" y="10.710" width="3.5554" height="3.5554" fill="none" stroke-linecap="square" stroke-width=".099263" style="paint-order:stroke fill markers"/>
<rect  stroke="#000" x="10.714" y="7.160" width="3.5554" height="3.5554" fill="none" stroke-linecap="square" stroke-width=".099263" style="paint-order:stroke fill markers"/>
<rect  stroke="#000" x="14.274" y="7.160" width="3.5554" height="3.5554" fill="none" stroke-linecap="square" stroke-width=".099263" style="paint-order:stroke fill markers"/>
<rect  stroke="#000" x="10.714" y="14.270" width="3.5554" height="3.5554" fill="none" stroke-linecap="square" stroke-width=".099263" style="paint-order:stroke fill markers"/>
<rect  stroke="#000" x="14.274" y="14.270" width="3.5554" height="3.5554" fill="none" stroke-linecap="square" stroke-width=".099263" style="paint-order:stroke fill markers"/>
<rect  stroke="#000" x="10.714" y="3.600" width="3.5554" height="3.5554" fill="none" stroke-linecap="square" stroke-width=".099263" style="paint-order:stroke fill markers"/>
<rect  stroke="#000" x="14.274" y="3.600" width="3.5554" height="3.5554" fill="none" stroke-linecap="square" stroke-width=".099263" style="paint-order:stroke fill markers"/>
<rect  stroke="#000" x="10.714" y="0.050" width="3.5554" height="3.5554" fill="none" stroke-linecap="square" stroke-width=".099263" style="paint-order:stroke fill markers"/>
<rect  stroke="#000" x="14.274" y="0.050" width="3.5554" height="3.5554" fill="none" stroke-linecap="square" stroke-width=".099263" style="paint-order:stroke fill markers"/>
<path  stroke="#000" d="m17.044 0.900-5.5338 5.5338" fill="none" stroke-dasharray="0.89337, 0.29779" stroke-width=".29779"/>
<path  stroke="#000" d="m6.364  11.580-5.5338 5.5338" fill="none" stroke-dasharray="0.89337, 0.29779" stroke-width=".29779"/>
<path  stroke="#000" d="m17.044 17.110-5.5338-5.5338" fill="none" stroke-dasharray="0.89337, 0.29779" stroke-width=".29779"/>
<path  stroke="#000" d="m6.364  6.430-5.5338-5.5338" fill="none" stroke-dasharray="0.89337, 0.29779" stroke-width=".29779"/>
<path  stroke="#000" d="m8.934  0.590v5.7573" fill="none" stroke-dasharray="0.894, 0.298" stroke-width=".298"/>
<path  stroke="#000" d="m8.934  11.260v5.7573" fill="none" stroke-dasharray="0.89337, 0.29779" stroke-width=".29779"/>
<path  stroke="#000" d="m17.154 8.800h-5.7573" fill="none" stroke-dasharray="0.89337, 0.29779" stroke-width=".29779"/>
<path  stroke="#000" d="m6.484  8.800h-5.7573" fill="none" stroke-dasharray="0.89337, 0.29779" stroke-width=".29779"/>
<path d="m8.784 7.624c0.0286 0.26239 0.0362 0.49603 0.0288 0.7067-0.29944 0.11522-0.57761 0.21837-0.57761 0.21837l0.0666 0.0749 0.501-0.11865c-0.0172 0.20923-0.0505 0.39302-0.0966 0.55229l-0.12834 0.0439 5e-3 0.0588 0.0918-7e-3c-0.32462 0.95389-1.099 0.99243-1.099 0.99243l0.0206 0.0617c0.71569-0.10285 1.1115-0.57595 1.3307-1.0726l0.82568-0.0601-0.18952-0.16771 0.31743-0.65754s-0.1583-0.14016-0.30073-0.24464c-0.0258 0.0257-0.19653 0.0991-0.40491 0.18303 0.0247-0.20945 0.0239-0.34798 0.0239-0.34798zm0.74905 0.7083-0.0809 0.4761-4e-3 -4e-3 -0.44918 0.15334c0.0673-0.18676 0.11084-0.36891 0.14058-0.53229zm-1.5346 0.058c-0.0447 0.0115-0.0206 6e-3 -0.0447 0.0114 0.32769 0.61173 0.35702 0.98562 0.35702 0.98562l0.21667-0.18953s-0.29218-0.6486-0.52899-0.80748zm1.0642 0.77863s0.59226 0.53915 0.94901 0.98625c0.12784-0.13478 0.26135-0.29519 0.26135-0.29519s-0.57612-0.46567-1.2104-0.69106z"/>
</svg>
