<?xml version="1.0" encoding="UTF-8"?>
<svg width="17.885mm" height="17.885mm" version="1.1" viewBox="0 0 17.885 17.885" xmlns="http://www.w3.org/2000/svg" xmlns:cc="http://creativecommons.org/ns#" xmlns:dc="http://purl.org/dc/elements/1.1/" xmlns:rdf="http://www.w3.org/1999/02/22-rdf-syntax-ns#">
<g transform="translate(-152.22,-129.32)">
<rect x="270.53" y="154.76" width="3.5554" height="3.5554" fill="none" stroke="#000" stroke-linecap="square" stroke-width=".099263" style="paint-order:stroke fill markers"/>
<path d="m273.35 156.57a1.0423 1.0423 0 0 1-1.066 1.0097 1.0423 1.0423 0 0 1-1.0179-1.0581 1.0423 1.0423 0 0 1 1.0502-1.0261 1.0423 1.0423 0 0 1 1.0342 1.0422" fill="none" stroke="#000" stroke-linecap="square" stroke-width=".29779" style="paint-order:stroke fill markers"/>
<rect x="270.53" y="158.32" width="3.5554" height="3.5554" fill="none" stroke="#000" stroke-linecap="square" stroke-width=".099263" style="paint-order:stroke fill markers"/>
<path d="m273.35 160.13a1.0423 1.0423 0 0 1-1.066 1.0097 1.0423 1.0423 0 0 1-1.0179-1.0581 1.0423 1.0423 0 0 1 1.0502-1.0261 1.0423 1.0423 0 0 1 1.0342 1.0422" fill="none" stroke="#000" stroke-linecap="square" stroke-width=".29779" style="paint-order:stroke fill markers"/>
<rect x="274.09" y="154.74" width="3.5554" height="3.5554" fill="none" stroke="#000" stroke-linecap="square" stroke-width=".099263" style="paint-order:stroke fill markers"/>
<g transform="matrix(.75034 0 0 .75034 200.3 155.97)">
<rect x="98.331" y="-6.3505" width="4.7384" height="4.7384" fill="none" stroke="#000" stroke-linecap="square" stroke-width=".13229" style="paint-order:stroke fill markers"/>
</g>
<path d="m276.9 153.02a1.0423 1.0423 0 0 1-1.066 1.0097 1.0423 1.0423 0 0 1-1.0179-1.0581 1.0423 1.0423 0 0 1 1.0502-1.0261 1.0423 1.0423 0 0 1 1.0342 1.0422" fill="none" stroke="#000" stroke-linecap="square" stroke-width=".29779" style="paint-order:stroke fill markers"/>
<rect x="270.53" y="151.21" width="3.5554" height="3.5554" fill="none" stroke="#000" stroke-linecap="square" stroke-width=".099263" style="paint-order:stroke fill markers"/>
<path d="m273.34 153.02a1.0423 1.0423 0 0 1-1.066 1.0097 1.0423 1.0423 0 0 1-1.0179-1.0581 1.0423 1.0423 0 0 1 1.0502-1.0261 1.0423 1.0423 0 0 1 1.0342 1.0422" fill="none" stroke="#000" stroke-linecap="square" stroke-width=".29779" style="paint-order:stroke fill markers"/>
<g transform="matrix(.75034 0 0 .75034 90.859 78.781)">
<g transform="translate(145.86,102.87)">
<rect x="98.331" y="3.1263" width="4.7384" height="4.7384" fill="none" stroke="#000" stroke-linecap="square" stroke-width=".13229" style="paint-order:stroke fill markers"/>
</g>
<path d="m247.95 108.41a1.3891 1.3891 0 0 1-1.4207 1.3456 1.3891 1.3891 0 0 1-1.3566-1.4102 1.3891 1.3891 0 0 1 1.3997-1.3675 1.3891 1.3891 0 0 1 1.3783 1.389" fill="none" stroke="#000" stroke-linecap="square" stroke-width=".39688" style="paint-order:stroke fill markers"/>
</g>
<rect x="277.64" y="154.75" width="3.5554" height="3.5554" fill="none" stroke="#000" stroke-linecap="square" stroke-width=".099263" style="paint-order:stroke fill markers"/>
<path d="m280.46 156.56a1.0423 1.0423 0 0 1-1.066 1.0097 1.0423 1.0423 0 0 1-1.0179-1.0581 1.0423 1.0423 0 0 1 1.0502-1.0261 1.0423 1.0423 0 0 1 1.0342 1.0422" fill="none" stroke="#000" stroke-linecap="square" stroke-width=".29779" style="paint-order:stroke fill markers"/>
<rect x="277.64" y="154.75" width="3.5554" height="3.5554" fill="none" stroke="#000" stroke-linecap="square" stroke-width=".099263" style="paint-order:stroke fill markers"/>
<path d="m280.46 156.56a1.0423 1.0423 0 0 1-1.066 1.0097 1.0423 1.0423 0 0 1-1.0179-1.0581 1.0423 1.0423 0 0 1 1.0502-1.0261 1.0423 1.0423 0 0 1 1.0342 1.0422" fill="none" stroke="#000" stroke-linecap="square" stroke-width=".29779" style="paint-order:stroke fill markers"/>
<rect x="277.64" y="151.2" width="3.5554" height="3.5554" fill="none" stroke="#000" stroke-linecap="square" stroke-width=".099263" style="paint-order:stroke fill markers"/>
<path d="m280.45 153.01a1.0423 1.0423 0 0 1-1.066 1.0097 1.0423 1.0423 0 0 1-1.0179-1.0581 1.0423 1.0423 0 0 1 1.0502-1.0261 1.0423 1.0423 0 0 1 1.0342 1.0422" fill="none" stroke="#000" stroke-linecap="square" stroke-width=".29779" style="paint-order:stroke fill markers"/>
<rect x="277.64" y="151.2" width="3.5554" height="3.5554" fill="none" stroke="#000" stroke-linecap="square" stroke-width=".099263" style="paint-order:stroke fill markers"/>
<path d="m280.45 153.01a1.0423 1.0423 0 0 1-1.066 1.0097 1.0423 1.0423 0 0 1-1.0179-1.0581 1.0423 1.0423 0 0 1 1.0502-1.0261 1.0423 1.0423 0 0 1 1.0342 1.0422" fill="none" stroke="#000" stroke-linecap="square" stroke-width=".29779" style="paint-order:stroke fill markers"/>
<rect x="277.64" y="158.31" width="3.5554" height="3.5554" fill="none" stroke="#000" stroke-linecap="square" stroke-width=".099263" style="paint-order:stroke fill markers"/>
<path d="m280.46 160.12a1.0423 1.0423 0 0 1-1.066 1.0097 1.0423 1.0423 0 0 1-1.0179-1.0581 1.0423 1.0423 0 0 1 1.0502-1.0261 1.0423 1.0423 0 0 1 1.0342 1.0422" fill="none" stroke="#000" stroke-linecap="square" stroke-width=".29779" style="paint-order:stroke fill markers"/>
<rect x="277.64" y="158.31" width="3.5554" height="3.5554" fill="none" stroke="#000" stroke-linecap="square" stroke-width=".099263" style="paint-order:stroke fill markers"/>
<path d="m280.46 160.12a1.0423 1.0423 0 0 1-1.066 1.0097 1.0423 1.0423 0 0 1-1.0179-1.0581 1.0423 1.0423 0 0 1 1.0502-1.0261 1.0423 1.0423 0 0 1 1.0342 1.0422" fill="none" stroke="#000" stroke-linecap="square" stroke-width=".29779" style="paint-order:stroke fill markers"/>
<rect x="281.2" y="154.75" width="3.5554" height="3.5554" fill="none" stroke="#000" stroke-linecap="square" stroke-width=".099263" style="paint-order:stroke fill markers"/>
<path d="m284.01 156.56a1.0423 1.0423 0 0 1-1.066 1.0097 1.0423 1.0423 0 0 1-1.0179-1.0581 1.0423 1.0423 0 0 1 1.0502-1.0261 1.0423 1.0423 0 0 1 1.0342 1.0422" fill="none" stroke="#000" stroke-linecap="square" stroke-width=".29779" style="paint-order:stroke fill markers"/>
<rect x="281.2" y="154.75" width="3.5554" height="3.5554" fill="none" stroke="#000" stroke-linecap="square" stroke-width=".099263" style="paint-order:stroke fill markers"/>
<path d="m284.01 156.56a1.0423 1.0423 0 0 1-1.066 1.0097 1.0423 1.0423 0 0 1-1.0179-1.0581 1.0423 1.0423 0 0 1 1.0502-1.0261 1.0423 1.0423 0 0 1 1.0342 1.0422" stroke="#000" stroke-linecap="square" stroke-width=".29779" style="paint-order:stroke fill markers"/>
<rect x="281.19" y="151.2" width="3.5554" height="3.5554" fill="none" stroke="#000" stroke-linecap="square" stroke-width=".099263" style="paint-order:stroke fill markers"/>
<path d="m284.01 153.01a1.0423 1.0423 0 0 1-1.066 1.0097 1.0423 1.0423 0 0 1-1.0179-1.0581 1.0423 1.0423 0 0 1 1.0502-1.0261 1.0423 1.0423 0 0 1 1.0342 1.0422" fill="none" stroke="#000" stroke-linecap="square" stroke-width=".29779" style="paint-order:stroke fill markers"/>
<rect x="281.19" y="151.2" width="3.5554" height="3.5554" fill="none" stroke="#000" stroke-linecap="square" stroke-width=".099263" style="paint-order:stroke fill markers"/>
<path d="m284.01 153.01a1.0423 1.0423 0 0 1-1.066 1.0097 1.0423 1.0423 0 0 1-1.0179-1.0581 1.0423 1.0423 0 0 1 1.0502-1.0261 1.0423 1.0423 0 0 1 1.0342 1.0422" stroke="#000" stroke-linecap="square" stroke-width=".29779" style="paint-order:stroke fill markers"/>
<rect x="281.2" y="158.31" width="3.5554" height="3.5554" fill="none" stroke="#000" stroke-linecap="square" stroke-width=".099263" style="paint-order:stroke fill markers"/>
<path d="m284.01 160.12a1.0423 1.0423 0 0 1-1.066 1.0097 1.0423 1.0423 0 0 1-1.0179-1.0581 1.0423 1.0423 0 0 1 1.0502-1.0261 1.0423 1.0423 0 0 1 1.0342 1.0422" fill="none" stroke="#000" stroke-linecap="square" stroke-width=".29779" style="paint-order:stroke fill markers"/>
<rect x="281.2" y="158.31" width="3.5554" height="3.5554" fill="none" stroke="#000" stroke-linecap="square" stroke-width=".099263" style="paint-order:stroke fill markers"/>
<path d="m284.01 160.12a1.0423 1.0423 0 0 1-1.066 1.0097 1.0423 1.0423 0 0 1-1.0179-1.0581 1.0423 1.0423 0 0 1 1.0502-1.0261 1.0423 1.0423 0 0 1 1.0342 1.0422" stroke="#000" stroke-linecap="square" stroke-width=".29779" style="paint-order:stroke fill markers"/>
<rect x="266.97" y="154.76" width="3.5554" height="3.5554" fill="none" stroke="#000" stroke-linecap="square" stroke-width=".099263" style="paint-order:stroke fill markers"/>
<path d="m269.79 156.57a1.0423 1.0423 0 0 1-1.066 1.0097 1.0423 1.0423 0 0 1-1.0179-1.0581 1.0423 1.0423 0 0 1 1.0502-1.0261 1.0423 1.0423 0 0 1 1.0342 1.0422" fill="none" stroke="#000" stroke-linecap="square" stroke-width=".29779" style="paint-order:stroke fill markers"/>
<rect x="266.97" y="154.76" width="3.5554" height="3.5554" fill="none" stroke="#000" stroke-linecap="square" stroke-width=".099263" style="paint-order:stroke fill markers"/>
<path d="m269.79 156.57a1.0423 1.0423 0 0 1-1.066 1.0097 1.0423 1.0423 0 0 1-1.0179-1.0581 1.0423 1.0423 0 0 1 1.0502-1.0261 1.0423 1.0423 0 0 1 1.0342 1.0422" stroke="#000" stroke-linecap="square" stroke-width=".29779" style="paint-order:stroke fill markers"/>
<rect x="266.97" y="151.21" width="3.5554" height="3.5554" fill="none" stroke="#000" stroke-linecap="square" stroke-width=".099263" style="paint-order:stroke fill markers"/>
<path d="m269.79 153.02a1.0423 1.0423 0 0 1-1.066 1.0097 1.0423 1.0423 0 0 1-1.0179-1.0581 1.0423 1.0423 0 0 1 1.0502-1.0261 1.0423 1.0423 0 0 1 1.0342 1.0422" fill="none" stroke="#000" stroke-linecap="square" stroke-width=".29779" style="paint-order:stroke fill markers"/>
<rect x="266.97" y="151.21" width="3.5554" height="3.5554" fill="none" stroke="#000" stroke-linecap="square" stroke-width=".099263" style="paint-order:stroke fill markers"/>
<path d="m269.79 153.02a1.0423 1.0423 0 0 1-1.066 1.0097 1.0423 1.0423 0 0 1-1.0179-1.0581 1.0423 1.0423 0 0 1 1.0502-1.0261 1.0423 1.0423 0 0 1 1.0342 1.0422" stroke="#000" stroke-linecap="square" stroke-width=".29779" style="paint-order:stroke fill markers"/>
<rect x="266.97" y="158.32" width="3.5554" height="3.5554" fill="none" stroke="#000" stroke-linecap="square" stroke-width=".099263" style="paint-order:stroke fill markers"/>
<path d="m269.79 160.13a1.0423 1.0423 0 0 1-1.066 1.0097 1.0423 1.0423 0 0 1-1.0179-1.0581 1.0423 1.0423 0 0 1 1.0502-1.0261 1.0423 1.0423 0 0 1 1.0342 1.0422" fill="none" stroke="#000" stroke-linecap="square" stroke-width=".29779" style="paint-order:stroke fill markers"/>
<rect x="266.97" y="158.32" width="3.5554" height="3.5554" fill="none" stroke="#000" stroke-linecap="square" stroke-width=".099263" style="paint-order:stroke fill markers"/>
<path d="m269.79 160.13a1.0423 1.0423 0 0 1-1.066 1.0097 1.0423 1.0423 0 0 1-1.0179-1.0581 1.0423 1.0423 0 0 1 1.0502-1.0261 1.0423 1.0423 0 0 1 1.0342 1.0422" stroke="#000" stroke-linecap="square" stroke-width=".29779" style="paint-order:stroke fill markers"/>
<rect x="270.53" y="147.65" width="3.5554" height="3.5554" fill="none" stroke="#000" stroke-linecap="square" stroke-width=".099263" style="paint-order:stroke fill markers"/>
<path d="m273.34 149.46a1.0423 1.0423 0 0 1-1.066 1.0097 1.0423 1.0423 0 0 1-1.0179-1.0581 1.0423 1.0423 0 0 1 1.0502-1.0261 1.0423 1.0423 0 0 1 1.0342 1.0422" stroke="#000" stroke-linecap="square" stroke-width=".29779" style="paint-order:stroke fill markers"/>
<rect x="277.64" y="147.64" width="3.5554" height="3.5554" fill="none" stroke="#000" stroke-linecap="square" stroke-width=".099263" style="paint-order:stroke fill markers"/>
<path d="m280.45 149.45a1.0423 1.0423 0 0 1-1.066 1.0097 1.0423 1.0423 0 0 1-1.0179-1.0581 1.0423 1.0423 0 0 1 1.0502-1.0261 1.0423 1.0423 0 0 1 1.0342 1.0422" fill="none" stroke="#000" stroke-linecap="square" stroke-width=".29779" style="paint-order:stroke fill markers"/>
<rect x="277.64" y="147.64" width="3.5554" height="3.5554" fill="none" stroke="#000" stroke-linecap="square" stroke-width=".099263" style="paint-order:stroke fill markers"/>
<path d="m280.45 149.45a1.0423 1.0423 0 0 1-1.066 1.0097 1.0423 1.0423 0 0 1-1.0179-1.0581 1.0423 1.0423 0 0 1 1.0502-1.0261 1.0423 1.0423 0 0 1 1.0342 1.0422" stroke="#000" stroke-linecap="square" stroke-width=".29779" style="paint-order:stroke fill markers"/>
<rect x="281.19" y="147.64" width="3.5554" height="3.5554" fill="none" stroke="#000" stroke-linecap="square" stroke-width=".099263" style="paint-order:stroke fill markers"/>
<path d="m284.01 149.45a1.0423 1.0423 0 0 1-1.066 1.0097 1.0423 1.0423 0 0 1-1.0179-1.0581 1.0423 1.0423 0 0 1 1.0502-1.0261 1.0423 1.0423 0 0 1 1.0342 1.0422" fill="none" stroke="#000" stroke-linecap="square" stroke-width=".29779" style="paint-order:stroke fill markers"/>
<rect x="281.19" y="147.64" width="3.5554" height="3.5554" fill="none" stroke="#000" stroke-linecap="square" stroke-width=".099263" style="paint-order:stroke fill markers"/>
<path d="m284.01 149.45a1.0423 1.0423 0 0 1-1.066 1.0097 1.0423 1.0423 0 0 1-1.0179-1.0581 1.0423 1.0423 0 0 1 1.0502-1.0261 1.0423 1.0423 0 0 1 1.0342 1.0422" stroke="#000" stroke-linecap="square" stroke-width=".29779" style="paint-order:stroke fill markers"/>
<rect x="266.97" y="147.65" width="3.5554" height="3.5554" fill="none" stroke="#000" stroke-linecap="square" stroke-width=".099263" style="paint-order:stroke fill markers"/>
<path d="m269.79 149.46a1.0423 1.0423 0 0 1-1.066 1.0097 1.0423 1.0423 0 0 1-1.0179-1.0581 1.0423 1.0423 0 0 1 1.0502-1.0261 1.0423 1.0423 0 0 1 1.0342 1.0422" fill="none" stroke="#000" stroke-linecap="square" stroke-width=".29779" style="paint-order:stroke fill markers"/>
<rect x="266.97" y="147.65" width="3.5554" height="3.5554" fill="none" stroke="#000" stroke-linecap="square" stroke-width=".099263" style="paint-order:stroke fill markers"/>
<path d="m269.79 149.46a1.0423 1.0423 0 0 1-1.066 1.0097 1.0423 1.0423 0 0 1-1.0179-1.0581 1.0423 1.0423 0 0 1 1.0502-1.0261 1.0423 1.0423 0 0 1 1.0342 1.0422" stroke="#000" stroke-linecap="square" stroke-width=".29779" style="paint-order:stroke fill markers"/>
<g transform="matrix(.75034 0 0 .75034 200.3 152.42)">
<rect x="98.331" y="-6.3505" width="4.7384" height="4.7384" fill="none" stroke="#000" stroke-linecap="square" stroke-width=".13229" style="paint-order:stroke fill markers"/>
</g>
<path d="m276.9 149.46a1.0423 1.0423 0 0 1-1.066 1.0097 1.0423 1.0423 0 0 1-1.0179-1.0581 1.0423 1.0423 0 0 1 1.0502-1.0261 1.0423 1.0423 0 0 1 1.0342 1.0422" stroke="#000" stroke-linecap="square" stroke-width=".29779" style="paint-order:stroke fill markers"/>
<rect x="270.53" y="161.87" width="3.5554" height="3.5554" fill="none" stroke="#000" stroke-linecap="square" stroke-width=".099263" style="paint-order:stroke fill markers"/>
<path d="m273.35 163.68a1.0423 1.0423 0 0 1-1.066 1.0097 1.0423 1.0423 0 0 1-1.0179-1.0581 1.0423 1.0423 0 0 1 1.0502-1.0261 1.0423 1.0423 0 0 1 1.0342 1.0422" stroke="#000" stroke-linecap="square" stroke-width=".29779" style="paint-order:stroke fill markers"/>
<g transform="matrix(.75034 0 0 .75034 90.859 82.337)">
<g transform="translate(145.86,102.87)">
<rect x="98.331" y="3.1263" width="4.7384" height="4.7384" fill="none" stroke="#000" stroke-linecap="square" stroke-width=".13229" style="paint-order:stroke fill markers"/>
</g>
<path d="m247.95 108.41a1.3891 1.3891 0 0 1-1.4207 1.3456 1.3891 1.3891 0 0 1-1.3566-1.4102 1.3891 1.3891 0 0 1 1.3997-1.3675 1.3891 1.3891 0 0 1 1.3783 1.389" stroke="#000" stroke-linecap="square" stroke-width=".39688" style="paint-order:stroke fill markers"/>
</g>
<rect x="277.64" y="161.86" width="3.5554" height="3.5554" fill="none" stroke="#000" stroke-linecap="square" stroke-width=".099263" style="paint-order:stroke fill markers"/>
<path d="m280.46 163.67a1.0423 1.0423 0 0 1-1.066 1.0097 1.0423 1.0423 0 0 1-1.0179-1.0581 1.0423 1.0423 0 0 1 1.0502-1.0261 1.0423 1.0423 0 0 1 1.0342 1.0422" fill="none" stroke="#000" stroke-linecap="square" stroke-width=".29779" style="paint-order:stroke fill markers"/>
<rect x="277.64" y="161.86" width="3.5554" height="3.5554" fill="none" stroke="#000" stroke-linecap="square" stroke-width=".099263" style="paint-order:stroke fill markers"/>
<path d="m280.46 163.67a1.0423 1.0423 0 0 1-1.066 1.0097 1.0423 1.0423 0 0 1-1.0179-1.0581 1.0423 1.0423 0 0 1 1.0502-1.0261 1.0423 1.0423 0 0 1 1.0342 1.0422" stroke="#000" stroke-linecap="square" stroke-width=".29779" style="paint-order:stroke fill markers"/>
<rect x="281.2" y="161.86" width="3.5554" height="3.5554" fill="none" stroke="#000" stroke-linecap="square" stroke-width=".099263" style="paint-order:stroke fill markers"/>
<path d="m284.01 163.67a1.0423 1.0423 0 0 1-1.066 1.0097 1.0423 1.0423 0 0 1-1.0179-1.0581 1.0423 1.0423 0 0 1 1.0502-1.0261 1.0423 1.0423 0 0 1 1.0342 1.0422" fill="none" stroke="#000" stroke-linecap="square" stroke-width=".29779" style="paint-order:stroke fill markers"/>
<rect x="281.2" y="161.86" width="3.5554" height="3.5554" fill="none" stroke="#000" stroke-linecap="square" stroke-width=".099263" style="paint-order:stroke fill markers"/>
<path d="m284.01 163.67a1.0423 1.0423 0 0 1-1.066 1.0097 1.0423 1.0423 0 0 1-1.0179-1.0581 1.0423 1.0423 0 0 1 1.0502-1.0261 1.0423 1.0423 0 0 1 1.0342 1.0422" stroke="#000" stroke-linecap="square" stroke-width=".29779" style="paint-order:stroke fill markers"/>
<rect x="266.97" y="161.87" width="3.5554" height="3.5554" fill="none" stroke="#000" stroke-linecap="square" stroke-width=".099263" style="paint-order:stroke fill markers"/>
<path d="m269.79 163.68a1.0423 1.0423 0 0 1-1.066 1.0097 1.0423 1.0423 0 0 1-1.0179-1.0581 1.0423 1.0423 0 0 1 1.0502-1.0261 1.0423 1.0423 0 0 1 1.0342 1.0422" fill="none" stroke="#000" stroke-linecap="square" stroke-width=".29779" style="paint-order:stroke fill markers"/>
<rect x="266.97" y="161.87" width="3.5554" height="3.5554" fill="none" stroke="#000" stroke-linecap="square" stroke-width=".099263" style="paint-order:stroke fill markers"/>
<path d="m269.79 163.68a1.0423 1.0423 0 0 1-1.066 1.0097 1.0423 1.0423 0 0 1-1.0179-1.0581 1.0423 1.0423 0 0 1 1.0502-1.0261 1.0423 1.0423 0 0 1 1.0342 1.0422" stroke="#000" stroke-linecap="square" stroke-width=".29779" style="paint-order:stroke fill markers"/>
<path d="m275.51 155.08c0.0326 0.0851 0.0787 0.37451 0.12153 0.72478-0.12849 0.0604-0.25643 0.11353-0.37725 0.1642 0.0173 0.027 0.0494 0.0536 0.0781 0.087l0.31893-0.0852c0.0101 0.0904 0.0196 0.18374 0.0287 0.27786-0.13904 0.0313-0.27817 0.0605-0.41396 0.0881-0.0908-0.20043-0.21459-0.43574-0.37937-0.662 0 0 0.0639 0.32673 0.12717 0.71202-0.36062 0.0699-0.6369 0.11706-0.6369 0.11706 0.0747 0.0806 0.0867 0.0879 0.20453 0.23932 0.15847-0.0443 0.31499-0.0854 0.46897-0.12419 0.0349 0.22955 0.0656 0.46176 0.0793 0.64679 0.21487-0.24692 0.32423-0.43705 0.32423-0.43705s-0.0334-0.11464-0.0998-0.28423c0.11915-0.0282 0.23294-0.0535 0.34606-0.0785 0.0132 0.15703 0.0241 0.31169 0.0315 0.45641l-0.33435 0.13738-8e-3 0.0737 0.34979-0.0434c8e-3 0.26233 3e-3 0.47258-0.0275 0.56165l0.22092 0.30041s3e-3 -0.42974 7e-3 -0.88697l0.58432-0.0725-0.17644-0.14856c0.0579-0.0719 0.12784-0.3072 0.18836-0.54729 0.49564-0.0908 0.81715-0.13376 0.81715-0.13376l-0.42469-0.3566-0.31275 0.17208c-2e-3 4.8e-4 -4e-3 2e-3 -4e-3 2e-3 0.0356-0.16062 0.0598-0.28222 0.0598-0.28222l-0.36585-0.34085c-0.10505 0.10476-0.22073 0.19209-0.34096 0.26774 3e-3 -0.11854 6e-3 -0.2292 0.0104-0.32307-0.13526-0.0718-0.24454-0.0989-0.46462-0.2223zm0.76172 0.72511c4e-3 0.10287 6e-3 0.20082 5e-3 0.29264-0.0994 0.029-0.20894 0.0581-0.3252 0.0867 2e-3 -0.10233 4e-3 -0.19856 5e-3 -0.29552zm-4e-3 0.54324c-0.01 0.15985-0.0248 0.2943-0.0402 0.39491l-0.0197-0.0165-0.26572 0.10918c2e-3 -0.13856 4e-3 -0.28015 6e-3 -0.423 0.11182-0.0234 0.21703-0.0447 0.31924-0.0647z"/>
</g>
</g>
</svg>
