<?xml version="1.0" encoding="UTF-8" standalone="no"?>
<svg
   xmlns:dc="http://purl.org/dc/elements/1.1/"
   xmlns:cc="http://creativecommons.org/ns#"
   xmlns:rdf="http://www.w3.org/1999/02/22-rdf-syntax-ns#"
   xmlns:svg="http://www.w3.org/2000/svg"
   xmlns="http://www.w3.org/2000/svg"
   xmlns:sodipodi="http://sodipodi.sourceforge.net/DTD/sodipodi-0.dtd"
   xmlns:inkscape="http://www.inkscape.org/namespaces/inkscape"
   width="17.874664mm"
   height="17.874664mm"
   version="1.1"
   viewBox="0 0 17.874664 17.874665"
   id="svg1078"
   sodipodi:docname="移動表示8.svg"
   inkscape:version="1.0.1 (3bc2e813f5, 2020-09-07)">
  <defs
     id="defs1082" />
  <sodipodi:namedview
     pagecolor="#ffffff"
     bordercolor="#666666"
     borderopacity="1"
     objecttolerance="10"
     gridtolerance="10"
     guidetolerance="10"
     inkscape:pageopacity="0"
     inkscape:pageshadow="2"
     inkscape:window-width="798"
     inkscape:window-height="480"
     id="namedview1080"
     showgrid="false"
     inkscape:zoom="2.5821878"
     inkscape:cx="26.89444"
     inkscape:cy="33.802703"
     inkscape:window-x="0"
     inkscape:window-y="0"
     inkscape:window-maximized="0"
     inkscape:current-layer="svg1078" />
  <metadata
     id="metadata994">
    <rdf:RDF>
      <cc:Work
         rdf:about="">
        <dc:format>image/svg+xml</dc:format>
        <dc:type
           rdf:resource="http://purl.org/dc/dcmitype/StillImage" />
        <dc:title />
      </cc:Work>
    </rdf:RDF>
  </metadata>
  <g
     transform="translate(-166.94038,-18.270368)"
     id="g1076">
    <g
       transform="translate(-150.49,-104.32)"
       id="g1074">
      <rect
         x="317.48001"
         y="129.75"
         width="3.5553999"
         height="3.5553999"
         fill="none"
         stroke="#000000"
         stroke-linecap="square"
         stroke-width="0.099263"
         style="paint-order:stroke fill markers"
         id="rect996" />
      <rect
         x="321.04001"
         y="133.31"
         width="3.5553999"
         height="3.5553999"
         fill="none"
         stroke="#000000"
         stroke-linecap="square"
         stroke-width="0.099263"
         style="paint-order:stroke fill markers"
         id="rect998" />
      <rect
         x="324.59"
         y="129.75"
         width="3.5553999"
         height="3.5553999"
         fill="none"
         stroke="#000000"
         stroke-linecap="square"
         stroke-width="0.099263"
         style="paint-order:stroke fill markers"
         id="rect1000" />
      <rect
         x="317.48001"
         y="133.31"
         width="3.5553999"
         height="3.5553999"
         fill="none"
         stroke="#000000"
         stroke-linecap="square"
         stroke-width="0.099263"
         style="paint-order:stroke fill markers"
         id="rect1002" />
      <rect
         x="317.48001"
         y="136.86"
         width="3.5553999"
         height="3.5553999"
         fill="none"
         stroke="#000000"
         stroke-linecap="square"
         stroke-width="0.099263"
         style="paint-order:stroke fill markers"
         id="rect1004" />
      <rect
         x="321.04001"
         y="136.86"
         width="3.5553999"
         height="3.5553999"
         fill="none"
         stroke="#000000"
         stroke-linecap="square"
         stroke-width="0.099263"
         style="paint-order:stroke fill markers"
         id="rect1006" />
      <rect
         x="317.48001"
         y="126.2"
         width="3.5553999"
         height="3.5553999"
         fill="none"
         stroke="#000000"
         stroke-linecap="square"
         stroke-width="0.099263"
         style="paint-order:stroke fill markers"
         id="rect1008" />
      <rect
         x="321.04001"
         y="126.2"
         width="3.5553999"
         height="3.5553999"
         fill="none"
         stroke="#000000"
         stroke-linecap="square"
         stroke-width="0.099263"
         style="paint-order:stroke fill markers"
         id="rect1010" />
      <rect
         x="317.48001"
         y="122.64"
         width="3.5553999"
         height="3.5553999"
         fill="none"
         stroke="#000000"
         stroke-linecap="square"
         stroke-width="0.099263"
         style="paint-order:stroke fill markers"
         id="rect1012" />
      <rect
         x="321.04001"
         y="122.64"
         width="3.5553999"
         height="3.5553999"
         fill="none"
         stroke="#000000"
         stroke-linecap="square"
         stroke-width="0.099263"
         style="paint-order:stroke fill markers"
         id="rect1014" />
      <rect
         x="324.59"
         y="122.64"
         width="3.5553999"
         height="3.5553999"
         fill="none"
         stroke="#000000"
         stroke-linecap="square"
         stroke-width="0.099263"
         style="paint-order:stroke fill markers"
         id="rect1016" />
      <rect
         x="328.14999"
         y="133.31"
         width="3.5553999"
         height="3.5553999"
         fill="none"
         stroke="#000000"
         stroke-linecap="square"
         stroke-width="0.099263"
         style="paint-order:stroke fill markers"
         id="rect1018" />
      <rect
         x="331.70001"
         y="133.31"
         width="3.5553999"
         height="3.5553999"
         fill="none"
         stroke="#000000"
         stroke-linecap="square"
         stroke-width="0.099263"
         style="paint-order:stroke fill markers"
         id="rect1020" />
      <rect
         x="331.70001"
         y="129.75"
         width="3.5553999"
         height="3.5553999"
         fill="none"
         stroke="#000000"
         stroke-linecap="square"
         stroke-width="0.099263"
         style="paint-order:stroke fill markers"
         id="rect1022" />
      <rect
         x="328.14999"
         y="136.86"
         width="3.5553999"
         height="3.5553999"
         fill="none"
         stroke="#000000"
         stroke-linecap="square"
         stroke-width="0.099263"
         style="paint-order:stroke fill markers"
         id="rect1024" />
      <rect
         x="331.70001"
         y="136.86"
         width="3.5553999"
         height="3.5553999"
         fill="none"
         stroke="#000000"
         stroke-linecap="square"
         stroke-width="0.099263"
         style="paint-order:stroke fill markers"
         id="rect1026" />
      <rect
         x="328.14999"
         y="126.2"
         width="3.5553999"
         height="3.5553999"
         fill="none"
         stroke="#000000"
         stroke-linecap="square"
         stroke-width="0.099263"
         style="paint-order:stroke fill markers"
         id="rect1028" />
      <rect
         x="331.70001"
         y="126.2"
         width="3.5553999"
         height="3.5553999"
         fill="none"
         stroke="#000000"
         stroke-linecap="square"
         stroke-width="0.099263"
         style="paint-order:stroke fill markers"
         id="rect1030" />
      <rect
         x="328.14999"
         y="122.64"
         width="3.5553999"
         height="3.5553999"
         fill="none"
         stroke="#000000"
         stroke-linecap="square"
         stroke-width="0.099263"
         style="paint-order:stroke fill markers"
         id="rect1032" />
      <rect
         x="331.70001"
         y="122.64"
         width="3.5553999"
         height="3.5553999"
         fill="none"
         stroke="#000000"
         stroke-linecap="square"
         stroke-width="0.099263"
         style="paint-order:stroke fill markers"
         id="rect1034" />
      <path
         d="m 326.95,130.25 -1.2053,0.48301 0.005,0.0834 1.1525,-0.17994 c -0.0183,0.0794 -0.0474,0.18391 -0.0786,0.28891 l -0.0167,-0.0155 c -0.30882,0.30793 -0.70825,0.46767 -1.0508,0.61136 0.0173,0.027 0.0493,0.0535 0.078,0.087 l 0.34883,-0.0931 c 0.0259,0.09 0.0408,0.1827 0.0485,0.27444 -0.15499,0.0353 -0.31157,0.0684 -0.46366,0.0994 -0.0607,-0.13395 -0.13532,-0.28232 -0.22846,-0.43503 0.0347,-0.20644 0.10639,-0.66628 0.1046,-0.9439 -0.22195,0.67165 -0.47036,0.92303 -0.49387,0.95242 -0.0171,0.0214 0.1856,0.0643 0.29785,0.0862 0.0211,0.11647 0.043,0.23927 0.0678,0.39033 -0.36067,0.0699 -0.6369,0.11706 -0.6369,0.11706 0.0747,0.0806 0.0867,0.0878 0.20453,0.23932 0.15846,-0.0443 0.31498,-0.0853 0.46897,-0.12418 0.0348,0.22954 0.0656,0.46175 0.0793,0.64678 0.21487,-0.24691 0.32424,-0.43704 0.32424,-0.43704 0,0 -0.0334,-0.11465 -0.0998,-0.28424 0.13193,-0.0312 0.25684,-0.0588 0.38128,-0.086 -0.006,0.21267 -0.0429,0.39233 -0.0662,0.48962 l -0.27188,0.11163 -0.008,0.0739 1.1352,-0.14079 -0.17644,-0.14856 c 0.0579,-0.0719 0.12795,-0.30719 0.18846,-0.54729 0.49558,-0.0908 0.81706,-0.13376 0.81706,-0.13376 l -0.42471,-0.3566 -0.31275,0.17208 c -0.002,6.8e-4 -0.004,8.7e-4 -0.004,0.002 0.0356,-0.16054 0.0597,-0.28211 0.0597,-0.28211 l -0.21218,-0.19771 0.34723,-0.47983 z m -0.17558,1.1074 c 0.004,0.10287 0.006,0.20082 0.005,0.29264 -0.0954,0.0279 -0.20031,0.0559 -0.31148,0.0833 0.004,-0.0426 0.006,-0.0868 0.008,-0.13355 -0.0957,-0.0507 -0.13832,-0.0745 -0.20166,-0.10919 z m -0.004,0.54324 c -0.01,0.15985 -0.0248,0.29429 -0.0402,0.39491 l -0.0197,-0.0165 -0.45631,0.1874 c 0.0621,-0.0903 0.13742,-0.24497 0.18345,-0.49823 0.1166,-0.0244 0.22643,-0.0469 0.33267,-0.0676 z"
         id="path1036" />
      <path
         d="m 326.95,130.25 -1.2053,0.48301 0.005,0.0834 1.1525,-0.17994 c -0.0183,0.0794 -0.0474,0.18391 -0.0786,0.28891 l -0.0167,-0.0155 c -0.30882,0.30793 -0.70825,0.46767 -1.0508,0.61136 0.0173,0.027 0.0493,0.0535 0.078,0.087 l 0.34883,-0.0931 c 0.0259,0.09 0.0408,0.1827 0.0485,0.27444 -0.15499,0.0353 -0.31157,0.0684 -0.46366,0.0994 -0.0607,-0.13395 -0.13532,-0.28232 -0.22846,-0.43503 0.0347,-0.20644 0.10639,-0.66628 0.1046,-0.9439 -0.22195,0.67165 -0.47036,0.92303 -0.49387,0.95242 -0.0171,0.0214 0.1856,0.0643 0.29785,0.0862 0.0211,0.11647 0.043,0.23927 0.0678,0.39033 -0.36067,0.0699 -0.6369,0.11706 -0.6369,0.11706 0.0747,0.0806 0.0867,0.0878 0.20453,0.23932 0.15846,-0.0443 0.31498,-0.0853 0.46897,-0.12418 0.0348,0.22954 0.0656,0.46175 0.0793,0.64678 0.21487,-0.24691 0.32424,-0.43704 0.32424,-0.43704 0,0 -0.0334,-0.11465 -0.0998,-0.28424 0.13193,-0.0312 0.25684,-0.0588 0.38128,-0.086 -0.006,0.21267 -0.0429,0.39233 -0.0662,0.48962 l -0.27188,0.11163 -0.008,0.0739 1.1352,-0.14079 -0.17644,-0.14856 c 0.0579,-0.0719 0.12795,-0.30719 0.18846,-0.54729 0.49558,-0.0908 0.81706,-0.13376 0.81706,-0.13376 l -0.42471,-0.3566 -0.31275,0.17208 c -0.002,6.8e-4 -0.004,8.7e-4 -0.004,0.002 0.0356,-0.16054 0.0597,-0.28211 0.0597,-0.28211 l -0.21218,-0.19771 0.34723,-0.47983 z m -0.17558,1.1074 c 0.004,0.10287 0.006,0.20082 0.005,0.29264 -0.0954,0.0279 -0.20031,0.0559 -0.31148,0.0833 0.004,-0.0426 0.006,-0.0868 0.008,-0.13355 -0.0957,-0.0507 -0.13832,-0.0745 -0.20166,-0.10919 z m -0.004,0.54324 c -0.01,0.15985 -0.0248,0.29429 -0.0402,0.39491 l -0.0197,-0.0165 -0.45631,0.1874 c 0.0621,-0.0903 0.13742,-0.24497 0.18345,-0.49823 0.1166,-0.0244 0.22643,-0.0469 0.33267,-0.0676 z"
         id="path1038" />
      <path
         d="m 318.21,130.48 2.1091,2.1091"
         fill="none"
         stroke="#000000"
         stroke-dasharray="0.894, 0.298"
         stroke-width="0.298"
         id="path1040" />
      <path
         d="m 320.32,130.48 -2.1091,2.1091"
         fill="none"
         stroke="#000000"
         stroke-dasharray="0.894, 0.298"
         stroke-width="0.298"
         id="path1042" />
      <rect
         x="324.59"
         y="126.2"
         width="3.5553999"
         height="3.5553999"
         fill="none"
         stroke="#000000"
         stroke-linecap="square"
         stroke-width="0.099263"
         style="paint-order:stroke fill markers"
         id="rect1044" />
      <path
         d="m 327.41,128.01 a 1.0423,1.0423 0 0 1 -1.066,1.0097 1.0423,1.0423 0 0 1 -1.0179,-1.0581 1.0423,1.0423 0 0 1 1.0502,-1.0261 1.0423,1.0423 0 0 1 1.0342,1.0422"
         fill="none"
         stroke="#000000"
         stroke-linecap="square"
         stroke-width="0.298"
         style="paint-order:stroke fill markers"
         id="path1046" />
      <rect
         x="328.14999"
         y="129.75"
         width="3.5553999"
         height="3.5553999"
         fill="none"
         stroke="#000000"
         stroke-linecap="square"
         stroke-width="0.099263"
         style="paint-order:stroke fill markers"
         id="rect1048" />
      <path
         d="m 330.97,131.56 a 1.0423,1.0423 0 0 1 -1.066,1.0097 1.0423,1.0423 0 0 1 -1.0179,-1.0581 1.0423,1.0423 0 0 1 1.0502,-1.0261 1.0423,1.0423 0 0 1 1.0342,1.0422"
         fill="none"
         stroke="#000000"
         stroke-linecap="square"
         stroke-width="0.298"
         style="paint-order:stroke fill markers"
         id="path1050" />
      <rect
         x="324.59"
         y="133.31"
         width="3.5553999"
         height="3.5553999"
         fill="none"
         stroke="#000000"
         stroke-linecap="square"
         stroke-width="0.099263"
         style="paint-order:stroke fill markers"
         id="rect1052" />
      <path
         d="m 327.41,135.12 a 1.0423,1.0423 0 0 1 -1.066,1.0097 1.0423,1.0423 0 0 1 -1.0179,-1.0581 1.0423,1.0423 0 0 1 1.0502,-1.0261 1.0423,1.0423 0 0 1 1.0342,1.0422"
         fill="none"
         stroke="#000000"
         stroke-linecap="square"
         stroke-width="0.298"
         style="paint-order:stroke fill markers"
         id="path1054" />
      <rect
         x="321.04001"
         y="129.75"
         width="3.5553999"
         height="3.5553999"
         fill="none"
         stroke="#000000"
         stroke-linecap="square"
         stroke-width="0.099263"
         style="paint-order:stroke fill markers"
         id="rect1056" />
      <path
         d="m 323.85,131.56 a 1.0423,1.0423 0 0 1 -1.066,1.0097 1.0423,1.0423 0 0 1 -1.0179,-1.0581 1.0423,1.0423 0 0 1 1.0502,-1.0261 1.0423,1.0423 0 0 1 1.0342,1.0422"
         fill="none"
         stroke="#000000"
         stroke-linecap="square"
         stroke-width="0.298"
         style="paint-order:stroke fill markers"
         id="path1058" />
      <path
         d="m 332.43,130.48 2.1091,2.1091"
         fill="none"
         stroke="#000000"
         stroke-dasharray="0.894, 0.298"
         stroke-width="0.298"
         id="path1060" />
      <path
         d="m 334.54,130.48 -2.1091,2.1091"
         fill="none"
         stroke="#000000"
         stroke-dasharray="0.894, 0.298"
         stroke-width="0.298"
         id="path1062" />
      <path
         d="m 325.32,123.37 2.1091,2.1091"
         fill="none"
         stroke="#000000"
         stroke-dasharray="0.894, 0.298"
         stroke-width="0.298"
         id="path1064" />
      <path
         d="m 327.43,123.37 -2.1091,2.1091"
         fill="none"
         stroke="#000000"
         stroke-dasharray="0.894, 0.298"
         stroke-width="0.298"
         id="path1066" />
      <rect
         x="324.59"
         y="136.86"
         width="3.5553999"
         height="3.5553999"
         fill="none"
         stroke="#000000"
         stroke-linecap="square"
         stroke-width="0.099263"
         style="paint-order:stroke fill markers"
         id="rect1068" />
      <path
         d="m 325.32,137.59 2.1091,2.1091"
         fill="none"
         stroke="#000000"
         stroke-dasharray="0.894, 0.298"
         stroke-width="0.298"
         id="path1070" />
      <path
         d="m 327.43,137.59 -2.1091,2.1091"
         fill="none"
         stroke="#000000"
         stroke-dasharray="0.894, 0.298"
         stroke-width="0.298"
         id="path1072" />
    </g>
  </g>
</svg>
