<?xml version="1.0" encoding="UTF-8" standalone="no"?>
<svg
   xmlns:dc="http://purl.org/dc/elements/1.1/"
   xmlns:cc="http://creativecommons.org/ns#"
   xmlns:rdf="http://www.w3.org/1999/02/22-rdf-syntax-ns#"
   xmlns:svg="http://www.w3.org/2000/svg"
   xmlns="http://www.w3.org/2000/svg"
   xmlns:sodipodi="http://sodipodi.sourceforge.net/DTD/sodipodi-0.dtd"
   xmlns:inkscape="http://www.inkscape.org/namespaces/inkscape"
   width="17.876663mm"
   height="17.875664mm"
   version="1.1"
   viewBox="0 0 17.876663 17.875664"
   id="svg64"
   sodipodi:docname="移動表示2.svg"
   inkscape:version="1.0.1 (3bc2e813f5, 2020-09-07)">
  <defs
     id="defs68" />
  <sodipodi:namedview
     pagecolor="#ffffff"
     bordercolor="#666666"
     borderopacity="1"
     objecttolerance="10"
     gridtolerance="10"
     guidetolerance="10"
     inkscape:pageopacity="0"
     inkscape:pageshadow="2"
     inkscape:window-width="1920"
     inkscape:window-height="1001"
     id="namedview66"
     showgrid="false"
     fit-margin-top="0"
     fit-margin-left="0"
     fit-margin-right="0"
     fit-margin-bottom="0"
     inkscape:zoom="2.5821878"
     inkscape:cx="116.44112"
     inkscape:cy="33.772468"
     inkscape:window-x="-9"
     inkscape:window-y="-9"
     inkscape:window-maximized="1"
     inkscape:current-layer="svg64" />
  <metadata
     id="metadata2">
    <rdf:RDF>
      <cc:Work
         rdf:about="">
        <dc:format>image/svg+xml</dc:format>
        <dc:type
           rdf:resource="http://purl.org/dc/dcmitype/StillImage" />
        <dc:title></dc:title>
      </cc:Work>
    </rdf:RDF>
  </metadata>
  <g
     transform="translate(-10.214368,-18.278368)"
     id="g62">
    <g
       transform="translate(-150.49,-102.36)"
       id="g60">
      <g
         transform="translate(88.378,57.145)"
         fill="none"
         stroke="#000000"
         stroke-linecap="square"
         id="g56">
        <rect
           x="72.375999"
           y="74.209"
           width="3.5553999"
           height="3.5553999"
           stroke-width="0.099263"
           style="paint-order:stroke fill markers"
           id="rect4" />
        <rect
           x="75.931999"
           y="74.209"
           width="3.5553999"
           height="3.5553999"
           stroke-width="0.099263"
           style="paint-order:stroke fill markers"
           id="rect6" />
        <rect
           x="79.487"
           y="74.209"
           width="3.5553999"
           height="3.5553999"
           stroke-width="0.099263"
           style="paint-order:stroke fill markers"
           id="rect8" />
        <rect
           x="72.375999"
           y="70.653999"
           width="3.5553999"
           height="3.5553999"
           stroke-width="0.099263"
           style="paint-order:stroke fill markers"
           id="rect10" />
        <rect
           x="75.931999"
           y="70.653999"
           width="3.5553999"
           height="3.5553999"
           stroke-width="0.099263"
           style="paint-order:stroke fill markers"
           id="rect12" />
        <rect
           x="79.487"
           y="70.653999"
           width="3.5553999"
           height="3.5553999"
           stroke-width="0.099263"
           style="paint-order:stroke fill markers"
           id="rect14" />
        <rect
           x="72.375999"
           y="77.764"
           width="3.5553999"
           height="3.5553999"
           stroke-width="0.099263"
           style="paint-order:stroke fill markers"
           id="rect16" />
        <rect
           x="75.931999"
           y="77.764"
           width="3.5553999"
           height="3.5553999"
           stroke-width="0.099263"
           style="paint-order:stroke fill markers"
           id="rect18" />
        <rect
           x="79.487"
           y="77.764"
           width="3.5553999"
           height="3.5553999"
           stroke-width="0.099263"
           style="paint-order:stroke fill markers"
           id="rect20" />
        <rect
           x="72.375999"
           y="67.098"
           width="3.5553999"
           height="3.5553999"
           stroke-width="0.099263"
           style="paint-order:stroke fill markers"
           id="rect22" />
        <rect
           x="75.931999"
           y="67.098"
           width="3.5553999"
           height="3.5553999"
           stroke-width="0.099263"
           style="paint-order:stroke fill markers"
           id="rect24" />
        <rect
           x="72.375999"
           y="63.542999"
           width="3.5553999"
           height="3.5553999"
           stroke-width="0.099263"
           style="paint-order:stroke fill markers"
           id="rect26" />
        <rect
           x="75.931999"
           y="63.542999"
           width="3.5553999"
           height="3.5553999"
           stroke-width="0.099263"
           style="paint-order:stroke fill markers"
           id="rect28" />
        <rect
           x="79.487"
           y="67.098"
           width="3.5553999"
           height="3.5553999"
           stroke-width="0.099263"
           style="paint-order:stroke fill markers"
           id="rect30" />
        <rect
           x="79.487"
           y="63.542999"
           width="3.5553999"
           height="3.5553999"
           stroke-width="0.099263"
           style="paint-order:stroke fill markers"
           id="rect32" />
        <rect
           x="83.042999"
           y="74.209"
           width="3.5553999"
           height="3.5553999"
           stroke-width="0.099263"
           style="paint-order:stroke fill markers"
           id="rect34" />
        <rect
           x="86.598"
           y="74.209"
           width="3.5553999"
           height="3.5553999"
           stroke-width="0.099263"
           style="paint-order:stroke fill markers"
           id="rect36" />
        <rect
           x="83.042999"
           y="70.653999"
           width="3.5553999"
           height="3.5553999"
           stroke-width="0.099263"
           style="paint-order:stroke fill markers"
           id="rect38" />
        <rect
           x="86.598"
           y="70.653999"
           width="3.5553999"
           height="3.5553999"
           stroke-width="0.099263"
           style="paint-order:stroke fill markers"
           id="rect40" />
        <rect
           x="83.042999"
           y="77.764"
           width="3.5553999"
           height="3.5553999"
           stroke-width="0.099263"
           style="paint-order:stroke fill markers"
           id="rect42" />
        <rect
           x="86.598"
           y="77.764"
           width="3.5553999"
           height="3.5553999"
           stroke-width="0.099263"
           style="paint-order:stroke fill markers"
           id="rect44" />
        <rect
           x="83.042999"
           y="67.098"
           width="3.5553999"
           height="3.5553999"
           stroke-width="0.099263"
           style="paint-order:stroke fill markers"
           id="rect46" />
        <rect
           x="86.598"
           y="67.098"
           width="3.5553999"
           height="3.5553999"
           stroke-width="0.099263"
           style="paint-order:stroke fill markers"
           id="rect48" />
        <rect
           x="83.042999"
           y="63.542999"
           width="3.5553999"
           height="3.5553999"
           stroke-width="0.099263"
           style="paint-order:stroke fill markers"
           id="rect50" />
        <rect
           x="86.598"
           y="63.542999"
           width="3.5553999"
           height="3.5553999"
           stroke-width="0.099263"
           style="paint-order:stroke fill markers"
           id="rect52" />
        <path
           d="m 82.305,68.908 a 1.0423,1.0423 0 0 1 -1.066,1.0097 1.0423,1.0423 0 0 1 -1.0179,-1.0581 1.0423,1.0423 0 0 1 1.0502,-1.0261 1.0423,1.0423 0 0 1 1.0342,1.0422"
           stroke-width="0.29779"
           style="paint-order:stroke fill markers"
           id="path54" />
      </g>
      <path
         d="m 169.49,128.38 c 0.0424,0.33333 0.0352,0.61939 -0.004,0.86622 l -0.36958,0.23134 0.0499,0.0581 0.27498,-0.0734 c -0.2689,1.0207 -1.1397,1.2375 -1.1397,1.2375 l 0.002,0.12887 c 0.83949,-0.21046 1.2416,-0.89048 1.4328,-1.4452 l 0.76842,-0.20517 -0.36586,-0.34085 -0.30126,0.18857 c 0.0577,-0.25368 0.0684,-0.4297 0.0684,-0.4297 z m -0.64019,0.23284 c 0.19123,0.8231 -0.29934,1.3137 -0.29934,1.3137 0,0 0.079,0.0124 0.16633,0.0166 0.29695,-0.31031 0.61517,-1.2056 0.61517,-1.2056 z m 0.91879,1.1768 c 0,0 0.59225,0.53914 0.949,0.98625 0.12786,-0.13479 0.26137,-0.29519 0.26137,-0.29519 0,0 -0.57615,-0.46567 -1.2104,-0.69106 z"
         id="path58" />
    </g>
  </g>
</svg>
