<?xml version="1.0" encoding="UTF-8" standalone="no"?>
<svg
   xmlns:dc="http://purl.org/dc/elements/1.1/"
   xmlns:cc="http://creativecommons.org/ns#"
   xmlns:rdf="http://www.w3.org/1999/02/22-rdf-syntax-ns#"
   xmlns:svg="http://www.w3.org/2000/svg"
   xmlns="http://www.w3.org/2000/svg"
   xmlns:sodipodi="http://sodipodi.sourceforge.net/DTD/sodipodi-0.dtd"
   xmlns:inkscape="http://www.inkscape.org/namespaces/inkscape"
   width="17.884674mm"
   height="17.884939mm"
   version="1.1"
   viewBox="0 0 17.884673 17.88494"
   id="svg758"
   sodipodi:docname="移動表示6.svg"
   inkscape:version="1.0.1 (3bc2e813f5, 2020-09-07)">
  <defs
     id="defs762" />
  <sodipodi:namedview
     pagecolor="#ffffff"
     bordercolor="#666666"
     borderopacity="1"
     objecttolerance="10"
     gridtolerance="10"
     guidetolerance="10"
     inkscape:pageopacity="0"
     inkscape:pageshadow="2"
     inkscape:window-width="798"
     inkscape:window-height="480"
     id="namedview760"
     showgrid="false"
     inkscape:zoom="2.5821878"
     inkscape:cx="-64.952574"
     inkscape:cy="33.802703"
     inkscape:window-x="0"
     inkscape:window-y="0"
     inkscape:window-maximized="0"
     inkscape:current-layer="svg758" />
  <metadata
     id="metadata580">
    <rdf:RDF>
      <cc:Work
         rdf:about="">
        <dc:format>image/svg+xml</dc:format>
        <dc:type
           rdf:resource="http://purl.org/dc/dcmitype/StillImage" />
        <dc:title />
      </cc:Work>
    </rdf:RDF>
  </metadata>
  <g
     transform="translate(-114.70037,-18.270368)"
     id="g756">
    <g
       transform="translate(-152.22,-129.32)"
       id="g754">
      <rect
         x="270.53"
         y="154.75999"
         width="3.5553999"
         height="3.5553999"
         fill="none"
         stroke="#000000"
         stroke-linecap="square"
         stroke-width="0.099263"
         style="paint-order:stroke fill markers"
         id="rect582" />
      <path
         d="m 273.35,156.57 a 1.0423,1.0423 0 0 1 -1.066,1.0097 1.0423,1.0423 0 0 1 -1.0179,-1.0581 1.0423,1.0423 0 0 1 1.0502,-1.0261 1.0423,1.0423 0 0 1 1.0342,1.0422"
         fill="none"
         stroke="#000000"
         stroke-linecap="square"
         stroke-width="0.29779"
         style="paint-order:stroke fill markers"
         id="path584" />
      <rect
         x="270.53"
         y="158.32001"
         width="3.5553999"
         height="3.5553999"
         fill="none"
         stroke="#000000"
         stroke-linecap="square"
         stroke-width="0.099263"
         style="paint-order:stroke fill markers"
         id="rect586" />
      <path
         d="m 273.35,160.13 a 1.0423,1.0423 0 0 1 -1.066,1.0097 1.0423,1.0423 0 0 1 -1.0179,-1.0581 1.0423,1.0423 0 0 1 1.0502,-1.0261 1.0423,1.0423 0 0 1 1.0342,1.0422"
         fill="none"
         stroke="#000000"
         stroke-linecap="square"
         stroke-width="0.29779"
         style="paint-order:stroke fill markers"
         id="path588" />
      <rect
         x="274.09"
         y="154.74001"
         width="3.5553999"
         height="3.5553999"
         fill="none"
         stroke="#000000"
         stroke-linecap="square"
         stroke-width="0.099263"
         style="paint-order:stroke fill markers"
         id="rect590" />
      <g
         transform="matrix(0.75034,0,0,0.75034,200.3,155.97)"
         id="g594">
        <rect
           x="98.331001"
           y="-6.3505001"
           width="4.7384"
           height="4.7384"
           fill="none"
           stroke="#000000"
           stroke-linecap="square"
           stroke-width="0.13229"
           style="paint-order:stroke fill markers"
           id="rect592" />
      </g>
      <path
         d="m 276.9,153.02 a 1.0423,1.0423 0 0 1 -1.066,1.0097 1.0423,1.0423 0 0 1 -1.0179,-1.0581 1.0423,1.0423 0 0 1 1.0502,-1.0261 1.0423,1.0423 0 0 1 1.0342,1.0422"
         fill="none"
         stroke="#000000"
         stroke-linecap="square"
         stroke-width="0.29779"
         style="paint-order:stroke fill markers"
         id="path596" />
      <rect
         x="270.53"
         y="151.21001"
         width="3.5553999"
         height="3.5553999"
         fill="none"
         stroke="#000000"
         stroke-linecap="square"
         stroke-width="0.099263"
         style="paint-order:stroke fill markers"
         id="rect598" />
      <path
         d="m 273.34,153.02 a 1.0423,1.0423 0 0 1 -1.066,1.0097 1.0423,1.0423 0 0 1 -1.0179,-1.0581 1.0423,1.0423 0 0 1 1.0502,-1.0261 1.0423,1.0423 0 0 1 1.0342,1.0422"
         fill="none"
         stroke="#000000"
         stroke-linecap="square"
         stroke-width="0.29779"
         style="paint-order:stroke fill markers"
         id="path600" />
      <g
         transform="matrix(0.75034,0,0,0.75034,90.859,78.781)"
         id="g608">
        <g
           transform="translate(145.86,102.87)"
           id="g604">
          <rect
             x="98.331001"
             y="3.1263001"
             width="4.7384"
             height="4.7384"
             fill="none"
             stroke="#000000"
             stroke-linecap="square"
             stroke-width="0.13229"
             style="paint-order:stroke fill markers"
             id="rect602" />
        </g>
        <path
           d="m 247.95,108.41 a 1.3891,1.3891 0 0 1 -1.4207,1.3456 1.3891,1.3891 0 0 1 -1.3566,-1.4102 1.3891,1.3891 0 0 1 1.3997,-1.3675 1.3891,1.3891 0 0 1 1.3783,1.389"
           fill="none"
           stroke="#000000"
           stroke-linecap="square"
           stroke-width="0.39688"
           style="paint-order:stroke fill markers"
           id="path606" />
      </g>
      <rect
         x="277.64001"
         y="154.75"
         width="3.5553999"
         height="3.5553999"
         fill="none"
         stroke="#000000"
         stroke-linecap="square"
         stroke-width="0.099263"
         style="paint-order:stroke fill markers"
         id="rect610" />
      <path
         d="m 280.46,156.56 a 1.0423,1.0423 0 0 1 -1.066,1.0097 1.0423,1.0423 0 0 1 -1.0179,-1.0581 1.0423,1.0423 0 0 1 1.0502,-1.0261 1.0423,1.0423 0 0 1 1.0342,1.0422"
         fill="none"
         stroke="#000000"
         stroke-linecap="square"
         stroke-width="0.29779"
         style="paint-order:stroke fill markers"
         id="path612" />
      <rect
         x="277.64001"
         y="154.75"
         width="3.5553999"
         height="3.5553999"
         fill="none"
         stroke="#000000"
         stroke-linecap="square"
         stroke-width="0.099263"
         style="paint-order:stroke fill markers"
         id="rect614" />
      <path
         d="m 280.46,156.56 a 1.0423,1.0423 0 0 1 -1.066,1.0097 1.0423,1.0423 0 0 1 -1.0179,-1.0581 1.0423,1.0423 0 0 1 1.0502,-1.0261 1.0423,1.0423 0 0 1 1.0342,1.0422"
         fill="none"
         stroke="#000000"
         stroke-linecap="square"
         stroke-width="0.29779"
         style="paint-order:stroke fill markers"
         id="path616" />
      <rect
         x="277.64001"
         y="151.2"
         width="3.5553999"
         height="3.5553999"
         fill="none"
         stroke="#000000"
         stroke-linecap="square"
         stroke-width="0.099263"
         style="paint-order:stroke fill markers"
         id="rect618" />
      <path
         d="m 280.45,153.01 a 1.0423,1.0423 0 0 1 -1.066,1.0097 1.0423,1.0423 0 0 1 -1.0179,-1.0581 1.0423,1.0423 0 0 1 1.0502,-1.0261 1.0423,1.0423 0 0 1 1.0342,1.0422"
         fill="none"
         stroke="#000000"
         stroke-linecap="square"
         stroke-width="0.29779"
         style="paint-order:stroke fill markers"
         id="path620" />
      <rect
         x="277.64001"
         y="151.2"
         width="3.5553999"
         height="3.5553999"
         fill="none"
         stroke="#000000"
         stroke-linecap="square"
         stroke-width="0.099263"
         style="paint-order:stroke fill markers"
         id="rect622" />
      <path
         d="m 280.45,153.01 a 1.0423,1.0423 0 0 1 -1.066,1.0097 1.0423,1.0423 0 0 1 -1.0179,-1.0581 1.0423,1.0423 0 0 1 1.0502,-1.0261 1.0423,1.0423 0 0 1 1.0342,1.0422"
         fill="none"
         stroke="#000000"
         stroke-linecap="square"
         stroke-width="0.29779"
         style="paint-order:stroke fill markers"
         id="path624" />
      <rect
         x="277.64001"
         y="158.31"
         width="3.5553999"
         height="3.5553999"
         fill="none"
         stroke="#000000"
         stroke-linecap="square"
         stroke-width="0.099263"
         style="paint-order:stroke fill markers"
         id="rect626" />
      <path
         d="m 280.46,160.12 a 1.0423,1.0423 0 0 1 -1.066,1.0097 1.0423,1.0423 0 0 1 -1.0179,-1.0581 1.0423,1.0423 0 0 1 1.0502,-1.0261 1.0423,1.0423 0 0 1 1.0342,1.0422"
         fill="none"
         stroke="#000000"
         stroke-linecap="square"
         stroke-width="0.29779"
         style="paint-order:stroke fill markers"
         id="path628" />
      <rect
         x="277.64001"
         y="158.31"
         width="3.5553999"
         height="3.5553999"
         fill="none"
         stroke="#000000"
         stroke-linecap="square"
         stroke-width="0.099263"
         style="paint-order:stroke fill markers"
         id="rect630" />
      <path
         d="m 280.46,160.12 a 1.0423,1.0423 0 0 1 -1.066,1.0097 1.0423,1.0423 0 0 1 -1.0179,-1.0581 1.0423,1.0423 0 0 1 1.0502,-1.0261 1.0423,1.0423 0 0 1 1.0342,1.0422"
         fill="none"
         stroke="#000000"
         stroke-linecap="square"
         stroke-width="0.29779"
         style="paint-order:stroke fill markers"
         id="path632" />
      <rect
         x="281.20001"
         y="154.75"
         width="3.5553999"
         height="3.5553999"
         fill="none"
         stroke="#000000"
         stroke-linecap="square"
         stroke-width="0.099263"
         style="paint-order:stroke fill markers"
         id="rect634" />
      <path
         d="m 284.01,156.56 a 1.0423,1.0423 0 0 1 -1.066,1.0097 1.0423,1.0423 0 0 1 -1.0179,-1.0581 1.0423,1.0423 0 0 1 1.0502,-1.0261 1.0423,1.0423 0 0 1 1.0342,1.0422"
         fill="none"
         stroke="#000000"
         stroke-linecap="square"
         stroke-width="0.29779"
         style="paint-order:stroke fill markers"
         id="path636" />
      <rect
         x="281.20001"
         y="154.75"
         width="3.5553999"
         height="3.5553999"
         fill="none"
         stroke="#000000"
         stroke-linecap="square"
         stroke-width="0.099263"
         style="paint-order:stroke fill markers"
         id="rect638" />
      <path
         d="m 284.01,156.56 a 1.0423,1.0423 0 0 1 -1.066,1.0097 1.0423,1.0423 0 0 1 -1.0179,-1.0581 1.0423,1.0423 0 0 1 1.0502,-1.0261 1.0423,1.0423 0 0 1 1.0342,1.0422"
         stroke="#000000"
         stroke-linecap="square"
         stroke-width="0.29779"
         style="paint-order:stroke fill markers"
         id="path640" />
      <rect
         x="281.19"
         y="151.2"
         width="3.5553999"
         height="3.5553999"
         fill="none"
         stroke="#000000"
         stroke-linecap="square"
         stroke-width="0.099263"
         style="paint-order:stroke fill markers"
         id="rect642" />
      <path
         d="m 284.01,153.01 a 1.0423,1.0423 0 0 1 -1.066,1.0097 1.0423,1.0423 0 0 1 -1.0179,-1.0581 1.0423,1.0423 0 0 1 1.0502,-1.0261 1.0423,1.0423 0 0 1 1.0342,1.0422"
         fill="none"
         stroke="#000000"
         stroke-linecap="square"
         stroke-width="0.29779"
         style="paint-order:stroke fill markers"
         id="path644" />
      <rect
         x="281.19"
         y="151.2"
         width="3.5553999"
         height="3.5553999"
         fill="none"
         stroke="#000000"
         stroke-linecap="square"
         stroke-width="0.099263"
         style="paint-order:stroke fill markers"
         id="rect646" />
      <path
         d="m 284.01,153.01 a 1.0423,1.0423 0 0 1 -1.066,1.0097 1.0423,1.0423 0 0 1 -1.0179,-1.0581 1.0423,1.0423 0 0 1 1.0502,-1.0261 1.0423,1.0423 0 0 1 1.0342,1.0422"
         stroke="#000000"
         stroke-linecap="square"
         stroke-width="0.29779"
         style="paint-order:stroke fill markers"
         id="path648" />
      <rect
         x="281.20001"
         y="158.31"
         width="3.5553999"
         height="3.5553999"
         fill="none"
         stroke="#000000"
         stroke-linecap="square"
         stroke-width="0.099263"
         style="paint-order:stroke fill markers"
         id="rect650" />
      <path
         d="m 284.01,160.12 a 1.0423,1.0423 0 0 1 -1.066,1.0097 1.0423,1.0423 0 0 1 -1.0179,-1.0581 1.0423,1.0423 0 0 1 1.0502,-1.0261 1.0423,1.0423 0 0 1 1.0342,1.0422"
         fill="none"
         stroke="#000000"
         stroke-linecap="square"
         stroke-width="0.29779"
         style="paint-order:stroke fill markers"
         id="path652" />
      <rect
         x="281.20001"
         y="158.31"
         width="3.5553999"
         height="3.5553999"
         fill="none"
         stroke="#000000"
         stroke-linecap="square"
         stroke-width="0.099263"
         style="paint-order:stroke fill markers"
         id="rect654" />
      <path
         d="m 284.01,160.12 a 1.0423,1.0423 0 0 1 -1.066,1.0097 1.0423,1.0423 0 0 1 -1.0179,-1.0581 1.0423,1.0423 0 0 1 1.0502,-1.0261 1.0423,1.0423 0 0 1 1.0342,1.0422"
         stroke="#000000"
         stroke-linecap="square"
         stroke-width="0.29779"
         style="paint-order:stroke fill markers"
         id="path656" />
      <rect
         x="266.97"
         y="154.75999"
         width="3.5553999"
         height="3.5553999"
         fill="none"
         stroke="#000000"
         stroke-linecap="square"
         stroke-width="0.099263"
         style="paint-order:stroke fill markers"
         id="rect658" />
      <path
         d="m 269.79,156.57 a 1.0423,1.0423 0 0 1 -1.066,1.0097 1.0423,1.0423 0 0 1 -1.0179,-1.0581 1.0423,1.0423 0 0 1 1.0502,-1.0261 1.0423,1.0423 0 0 1 1.0342,1.0422"
         fill="none"
         stroke="#000000"
         stroke-linecap="square"
         stroke-width="0.29779"
         style="paint-order:stroke fill markers"
         id="path660" />
      <rect
         x="266.97"
         y="154.75999"
         width="3.5553999"
         height="3.5553999"
         fill="none"
         stroke="#000000"
         stroke-linecap="square"
         stroke-width="0.099263"
         style="paint-order:stroke fill markers"
         id="rect662" />
      <path
         d="m 269.79,156.57 a 1.0423,1.0423 0 0 1 -1.066,1.0097 1.0423,1.0423 0 0 1 -1.0179,-1.0581 1.0423,1.0423 0 0 1 1.0502,-1.0261 1.0423,1.0423 0 0 1 1.0342,1.0422"
         stroke="#000000"
         stroke-linecap="square"
         stroke-width="0.29779"
         style="paint-order:stroke fill markers"
         id="path664" />
      <rect
         x="266.97"
         y="151.21001"
         width="3.5553999"
         height="3.5553999"
         fill="none"
         stroke="#000000"
         stroke-linecap="square"
         stroke-width="0.099263"
         style="paint-order:stroke fill markers"
         id="rect666" />
      <path
         d="m 269.79,153.02 a 1.0423,1.0423 0 0 1 -1.066,1.0097 1.0423,1.0423 0 0 1 -1.0179,-1.0581 1.0423,1.0423 0 0 1 1.0502,-1.0261 1.0423,1.0423 0 0 1 1.0342,1.0422"
         fill="none"
         stroke="#000000"
         stroke-linecap="square"
         stroke-width="0.29779"
         style="paint-order:stroke fill markers"
         id="path668" />
      <rect
         x="266.97"
         y="151.21001"
         width="3.5553999"
         height="3.5553999"
         fill="none"
         stroke="#000000"
         stroke-linecap="square"
         stroke-width="0.099263"
         style="paint-order:stroke fill markers"
         id="rect670" />
      <path
         d="m 269.79,153.02 a 1.0423,1.0423 0 0 1 -1.066,1.0097 1.0423,1.0423 0 0 1 -1.0179,-1.0581 1.0423,1.0423 0 0 1 1.0502,-1.0261 1.0423,1.0423 0 0 1 1.0342,1.0422"
         stroke="#000000"
         stroke-linecap="square"
         stroke-width="0.29779"
         style="paint-order:stroke fill markers"
         id="path672" />
      <rect
         x="266.97"
         y="158.32001"
         width="3.5553999"
         height="3.5553999"
         fill="none"
         stroke="#000000"
         stroke-linecap="square"
         stroke-width="0.099263"
         style="paint-order:stroke fill markers"
         id="rect674" />
      <path
         d="m 269.79,160.13 a 1.0423,1.0423 0 0 1 -1.066,1.0097 1.0423,1.0423 0 0 1 -1.0179,-1.0581 1.0423,1.0423 0 0 1 1.0502,-1.0261 1.0423,1.0423 0 0 1 1.0342,1.0422"
         fill="none"
         stroke="#000000"
         stroke-linecap="square"
         stroke-width="0.29779"
         style="paint-order:stroke fill markers"
         id="path676" />
      <rect
         x="266.97"
         y="158.32001"
         width="3.5553999"
         height="3.5553999"
         fill="none"
         stroke="#000000"
         stroke-linecap="square"
         stroke-width="0.099263"
         style="paint-order:stroke fill markers"
         id="rect678" />
      <path
         d="m 269.79,160.13 a 1.0423,1.0423 0 0 1 -1.066,1.0097 1.0423,1.0423 0 0 1 -1.0179,-1.0581 1.0423,1.0423 0 0 1 1.0502,-1.0261 1.0423,1.0423 0 0 1 1.0342,1.0422"
         stroke="#000000"
         stroke-linecap="square"
         stroke-width="0.29779"
         style="paint-order:stroke fill markers"
         id="path680" />
      <rect
         x="270.53"
         y="147.64999"
         width="3.5553999"
         height="3.5553999"
         fill="none"
         stroke="#000000"
         stroke-linecap="square"
         stroke-width="0.099263"
         style="paint-order:stroke fill markers"
         id="rect682" />
      <path
         d="m 273.34,149.46 a 1.0423,1.0423 0 0 1 -1.066,1.0097 1.0423,1.0423 0 0 1 -1.0179,-1.0581 1.0423,1.0423 0 0 1 1.0502,-1.0261 1.0423,1.0423 0 0 1 1.0342,1.0422"
         stroke="#000000"
         stroke-linecap="square"
         stroke-width="0.29779"
         style="paint-order:stroke fill markers"
         id="path684" />
      <rect
         x="277.64001"
         y="147.64"
         width="3.5553999"
         height="3.5553999"
         fill="none"
         stroke="#000000"
         stroke-linecap="square"
         stroke-width="0.099263"
         style="paint-order:stroke fill markers"
         id="rect686" />
      <path
         d="m 280.45,149.45 a 1.0423,1.0423 0 0 1 -1.066,1.0097 1.0423,1.0423 0 0 1 -1.0179,-1.0581 1.0423,1.0423 0 0 1 1.0502,-1.0261 1.0423,1.0423 0 0 1 1.0342,1.0422"
         fill="none"
         stroke="#000000"
         stroke-linecap="square"
         stroke-width="0.29779"
         style="paint-order:stroke fill markers"
         id="path688" />
      <rect
         x="277.64001"
         y="147.64"
         width="3.5553999"
         height="3.5553999"
         fill="none"
         stroke="#000000"
         stroke-linecap="square"
         stroke-width="0.099263"
         style="paint-order:stroke fill markers"
         id="rect690" />
      <path
         d="m 280.45,149.45 a 1.0423,1.0423 0 0 1 -1.066,1.0097 1.0423,1.0423 0 0 1 -1.0179,-1.0581 1.0423,1.0423 0 0 1 1.0502,-1.0261 1.0423,1.0423 0 0 1 1.0342,1.0422"
         stroke="#000000"
         stroke-linecap="square"
         stroke-width="0.29779"
         style="paint-order:stroke fill markers"
         id="path692" />
      <rect
         x="281.19"
         y="147.64"
         width="3.5553999"
         height="3.5553999"
         fill="none"
         stroke="#000000"
         stroke-linecap="square"
         stroke-width="0.099263"
         style="paint-order:stroke fill markers"
         id="rect694" />
      <path
         d="m 284.01,149.45 a 1.0423,1.0423 0 0 1 -1.066,1.0097 1.0423,1.0423 0 0 1 -1.0179,-1.0581 1.0423,1.0423 0 0 1 1.0502,-1.0261 1.0423,1.0423 0 0 1 1.0342,1.0422"
         fill="none"
         stroke="#000000"
         stroke-linecap="square"
         stroke-width="0.29779"
         style="paint-order:stroke fill markers"
         id="path696" />
      <rect
         x="281.19"
         y="147.64"
         width="3.5553999"
         height="3.5553999"
         fill="none"
         stroke="#000000"
         stroke-linecap="square"
         stroke-width="0.099263"
         style="paint-order:stroke fill markers"
         id="rect698" />
      <path
         d="m 284.01,149.45 a 1.0423,1.0423 0 0 1 -1.066,1.0097 1.0423,1.0423 0 0 1 -1.0179,-1.0581 1.0423,1.0423 0 0 1 1.0502,-1.0261 1.0423,1.0423 0 0 1 1.0342,1.0422"
         stroke="#000000"
         stroke-linecap="square"
         stroke-width="0.29779"
         style="paint-order:stroke fill markers"
         id="path700" />
      <rect
         x="266.97"
         y="147.64999"
         width="3.5553999"
         height="3.5553999"
         fill="none"
         stroke="#000000"
         stroke-linecap="square"
         stroke-width="0.099263"
         style="paint-order:stroke fill markers"
         id="rect702" />
      <path
         d="m 269.79,149.46 a 1.0423,1.0423 0 0 1 -1.066,1.0097 1.0423,1.0423 0 0 1 -1.0179,-1.0581 1.0423,1.0423 0 0 1 1.0502,-1.0261 1.0423,1.0423 0 0 1 1.0342,1.0422"
         fill="none"
         stroke="#000000"
         stroke-linecap="square"
         stroke-width="0.29779"
         style="paint-order:stroke fill markers"
         id="path704" />
      <rect
         x="266.97"
         y="147.64999"
         width="3.5553999"
         height="3.5553999"
         fill="none"
         stroke="#000000"
         stroke-linecap="square"
         stroke-width="0.099263"
         style="paint-order:stroke fill markers"
         id="rect706" />
      <path
         d="m 269.79,149.46 a 1.0423,1.0423 0 0 1 -1.066,1.0097 1.0423,1.0423 0 0 1 -1.0179,-1.0581 1.0423,1.0423 0 0 1 1.0502,-1.0261 1.0423,1.0423 0 0 1 1.0342,1.0422"
         stroke="#000000"
         stroke-linecap="square"
         stroke-width="0.29779"
         style="paint-order:stroke fill markers"
         id="path708" />
      <g
         transform="matrix(0.75034,0,0,0.75034,200.3,152.42)"
         id="g712">
        <rect
           x="98.331001"
           y="-6.3505001"
           width="4.7384"
           height="4.7384"
           fill="none"
           stroke="#000000"
           stroke-linecap="square"
           stroke-width="0.13229"
           style="paint-order:stroke fill markers"
           id="rect710" />
      </g>
      <path
         d="m 276.9,149.46 a 1.0423,1.0423 0 0 1 -1.066,1.0097 1.0423,1.0423 0 0 1 -1.0179,-1.0581 1.0423,1.0423 0 0 1 1.0502,-1.0261 1.0423,1.0423 0 0 1 1.0342,1.0422"
         stroke="#000000"
         stroke-linecap="square"
         stroke-width="0.29779"
         style="paint-order:stroke fill markers"
         id="path714" />
      <rect
         x="270.53"
         y="161.87"
         width="3.5553999"
         height="3.5553999"
         fill="none"
         stroke="#000000"
         stroke-linecap="square"
         stroke-width="0.099263"
         style="paint-order:stroke fill markers"
         id="rect716" />
      <path
         d="m 273.35,163.68 a 1.0423,1.0423 0 0 1 -1.066,1.0097 1.0423,1.0423 0 0 1 -1.0179,-1.0581 1.0423,1.0423 0 0 1 1.0502,-1.0261 1.0423,1.0423 0 0 1 1.0342,1.0422"
         stroke="#000000"
         stroke-linecap="square"
         stroke-width="0.29779"
         style="paint-order:stroke fill markers"
         id="path718" />
      <g
         transform="matrix(0.75034,0,0,0.75034,90.859,82.337)"
         id="g726">
        <g
           transform="translate(145.86,102.87)"
           id="g722">
          <rect
             x="98.331001"
             y="3.1263001"
             width="4.7384"
             height="4.7384"
             fill="none"
             stroke="#000000"
             stroke-linecap="square"
             stroke-width="0.13229"
             style="paint-order:stroke fill markers"
             id="rect720" />
        </g>
        <path
           d="m 247.95,108.41 a 1.3891,1.3891 0 0 1 -1.4207,1.3456 1.3891,1.3891 0 0 1 -1.3566,-1.4102 1.3891,1.3891 0 0 1 1.3997,-1.3675 1.3891,1.3891 0 0 1 1.3783,1.389"
           stroke="#000000"
           stroke-linecap="square"
           stroke-width="0.39688"
           style="paint-order:stroke fill markers"
           id="path724" />
      </g>
      <rect
         x="277.64001"
         y="161.86"
         width="3.5553999"
         height="3.5553999"
         fill="none"
         stroke="#000000"
         stroke-linecap="square"
         stroke-width="0.099263"
         style="paint-order:stroke fill markers"
         id="rect728" />
      <path
         d="m 280.46,163.67 a 1.0423,1.0423 0 0 1 -1.066,1.0097 1.0423,1.0423 0 0 1 -1.0179,-1.0581 1.0423,1.0423 0 0 1 1.0502,-1.0261 1.0423,1.0423 0 0 1 1.0342,1.0422"
         fill="none"
         stroke="#000000"
         stroke-linecap="square"
         stroke-width="0.29779"
         style="paint-order:stroke fill markers"
         id="path730" />
      <rect
         x="277.64001"
         y="161.86"
         width="3.5553999"
         height="3.5553999"
         fill="none"
         stroke="#000000"
         stroke-linecap="square"
         stroke-width="0.099263"
         style="paint-order:stroke fill markers"
         id="rect732" />
      <path
         d="m 280.46,163.67 a 1.0423,1.0423 0 0 1 -1.066,1.0097 1.0423,1.0423 0 0 1 -1.0179,-1.0581 1.0423,1.0423 0 0 1 1.0502,-1.0261 1.0423,1.0423 0 0 1 1.0342,1.0422"
         stroke="#000000"
         stroke-linecap="square"
         stroke-width="0.29779"
         style="paint-order:stroke fill markers"
         id="path734" />
      <rect
         x="281.20001"
         y="161.86"
         width="3.5553999"
         height="3.5553999"
         fill="none"
         stroke="#000000"
         stroke-linecap="square"
         stroke-width="0.099263"
         style="paint-order:stroke fill markers"
         id="rect736" />
      <path
         d="m 284.01,163.67 a 1.0423,1.0423 0 0 1 -1.066,1.0097 1.0423,1.0423 0 0 1 -1.0179,-1.0581 1.0423,1.0423 0 0 1 1.0502,-1.0261 1.0423,1.0423 0 0 1 1.0342,1.0422"
         fill="none"
         stroke="#000000"
         stroke-linecap="square"
         stroke-width="0.29779"
         style="paint-order:stroke fill markers"
         id="path738" />
      <rect
         x="281.20001"
         y="161.86"
         width="3.5553999"
         height="3.5553999"
         fill="none"
         stroke="#000000"
         stroke-linecap="square"
         stroke-width="0.099263"
         style="paint-order:stroke fill markers"
         id="rect740" />
      <path
         d="m 284.01,163.67 a 1.0423,1.0423 0 0 1 -1.066,1.0097 1.0423,1.0423 0 0 1 -1.0179,-1.0581 1.0423,1.0423 0 0 1 1.0502,-1.0261 1.0423,1.0423 0 0 1 1.0342,1.0422"
         stroke="#000000"
         stroke-linecap="square"
         stroke-width="0.29779"
         style="paint-order:stroke fill markers"
         id="path742" />
      <rect
         x="266.97"
         y="161.87"
         width="3.5553999"
         height="3.5553999"
         fill="none"
         stroke="#000000"
         stroke-linecap="square"
         stroke-width="0.099263"
         style="paint-order:stroke fill markers"
         id="rect744" />
      <path
         d="m 269.79,163.68 a 1.0423,1.0423 0 0 1 -1.066,1.0097 1.0423,1.0423 0 0 1 -1.0179,-1.0581 1.0423,1.0423 0 0 1 1.0502,-1.0261 1.0423,1.0423 0 0 1 1.0342,1.0422"
         fill="none"
         stroke="#000000"
         stroke-linecap="square"
         stroke-width="0.29779"
         style="paint-order:stroke fill markers"
         id="path746" />
      <rect
         x="266.97"
         y="161.87"
         width="3.5553999"
         height="3.5553999"
         fill="none"
         stroke="#000000"
         stroke-linecap="square"
         stroke-width="0.099263"
         style="paint-order:stroke fill markers"
         id="rect748" />
      <path
         d="m 269.79,163.68 a 1.0423,1.0423 0 0 1 -1.066,1.0097 1.0423,1.0423 0 0 1 -1.0179,-1.0581 1.0423,1.0423 0 0 1 1.0502,-1.0261 1.0423,1.0423 0 0 1 1.0342,1.0422"
         stroke="#000000"
         stroke-linecap="square"
         stroke-width="0.29779"
         style="paint-order:stroke fill markers"
         id="path750" />
      <path
         d="m 275.51,155.08 c 0.0326,0.0851 0.0787,0.37451 0.12153,0.72478 -0.12849,0.0604 -0.25643,0.11353 -0.37725,0.1642 0.0173,0.027 0.0494,0.0536 0.0781,0.087 l 0.31893,-0.0852 c 0.0101,0.0904 0.0196,0.18374 0.0287,0.27786 -0.13904,0.0313 -0.27817,0.0605 -0.41396,0.0881 -0.0908,-0.20043 -0.21459,-0.43574 -0.37937,-0.662 0,0 0.0639,0.32673 0.12717,0.71202 -0.36062,0.0699 -0.6369,0.11706 -0.6369,0.11706 0.0747,0.0806 0.0867,0.0879 0.20453,0.23932 0.15847,-0.0443 0.31499,-0.0854 0.46897,-0.12419 0.0349,0.22955 0.0656,0.46176 0.0793,0.64679 0.21487,-0.24692 0.32423,-0.43705 0.32423,-0.43705 0,0 -0.0334,-0.11464 -0.0998,-0.28423 0.11915,-0.0282 0.23294,-0.0535 0.34606,-0.0785 0.0132,0.15703 0.0241,0.31169 0.0315,0.45641 l -0.33435,0.13738 -0.008,0.0737 0.34979,-0.0434 c 0.008,0.26233 0.003,0.47258 -0.0275,0.56165 l 0.22092,0.30041 c 0,0 0.003,-0.42974 0.007,-0.88697 l 0.58432,-0.0725 -0.17644,-0.14856 c 0.0579,-0.0719 0.12784,-0.3072 0.18836,-0.54729 0.49564,-0.0908 0.81715,-0.13376 0.81715,-0.13376 l -0.42469,-0.3566 -0.31275,0.17208 c -0.002,4.8e-4 -0.004,0.002 -0.004,0.002 0.0356,-0.16062 0.0598,-0.28222 0.0598,-0.28222 l -0.36585,-0.34085 c -0.10505,0.10476 -0.22073,0.19209 -0.34096,0.26774 0.003,-0.11854 0.006,-0.2292 0.0104,-0.32307 -0.13526,-0.0718 -0.24454,-0.0989 -0.46462,-0.2223 z m 0.76172,0.72511 c 0.004,0.10287 0.006,0.20082 0.005,0.29264 -0.0994,0.029 -0.20894,0.0581 -0.3252,0.0867 0.002,-0.10233 0.004,-0.19856 0.005,-0.29552 z m -0.004,0.54324 c -0.01,0.15985 -0.0248,0.2943 -0.0402,0.39491 l -0.0197,-0.0165 -0.26572,0.10918 c 0.002,-0.13856 0.004,-0.28015 0.006,-0.423 0.11182,-0.0234 0.21703,-0.0447 0.31924,-0.0647 z"
         id="path752" />
    </g>
  </g>
</svg>
