<?xml version="1.0" encoding="UTF-8" standalone="no"?>
<svg
   xmlns:dc="http://purl.org/dc/elements/1.1/"
   xmlns:cc="http://creativecommons.org/ns#"
   xmlns:rdf="http://www.w3.org/1999/02/22-rdf-syntax-ns#"
   xmlns:svg="http://www.w3.org/2000/svg"
   xmlns="http://www.w3.org/2000/svg"
   xmlns:sodipodi="http://sodipodi.sourceforge.net/DTD/sodipodi-0.dtd"
   xmlns:inkscape="http://www.inkscape.org/namespaces/inkscape"
   width="17.876663mm"
   height="17.874664mm"
   version="1.1"
   viewBox="0 0 17.876663 17.874665"
   id="svg226"
   sodipodi:docname="移動表示4.svg"
   inkscape:version="1.0.1 (3bc2e813f5, 2020-09-07)">
  <defs
     id="defs230" />
  <sodipodi:namedview
     pagecolor="#ffffff"
     bordercolor="#666666"
     borderopacity="1"
     objecttolerance="10"
     gridtolerance="10"
     guidetolerance="10"
     inkscape:pageopacity="0"
     inkscape:pageshadow="2"
     inkscape:window-width="798"
     inkscape:window-height="480"
     id="namedview228"
     showgrid="false"
     inkscape:zoom="2.5821878"
     inkscape:cx="132.47861"
     inkscape:cy="33.768667"
     inkscape:window-x="0"
     inkscape:window-y="0"
     inkscape:window-maximized="0"
     inkscape:current-layer="svg226" />
  <metadata
     id="metadata158">
    <rdf:RDF>
      <cc:Work
         rdf:about="">
        <dc:format>image/svg+xml</dc:format>
        <dc:type
           rdf:resource="http://purl.org/dc/dcmitype/StillImage" />
        <dc:title />
      </cc:Work>
    </rdf:RDF>
  </metadata>
  <g
     transform="translate(-62.463369,-18.279373)"
     id="g224">
    <g
       transform="translate(-165.66,-103.56)"
       id="g222">
      <g
         transform="translate(155.66,-80.741)"
         fill="none"
         stroke="#000000"
         id="g218">
        <path
           d="M 89.623,211.49 H 83.8657"
           stroke-width="0.298"
           id="path160" />
        <path
           d="M 78.957,211.49 H 73.1997"
           stroke-width="0.29788"
           id="path162" />
        <rect
           x="72.513"
           y="213.28999"
           width="3.5553999"
           height="3.5553999"
           stroke-linecap="square"
           stroke-width="0.099263"
           style="paint-order:stroke fill markers"
           id="rect164" />
        <rect
           x="76.069"
           y="213.28999"
           width="3.5553999"
           height="3.5553999"
           stroke-linecap="square"
           stroke-width="0.099263"
           style="paint-order:stroke fill markers"
           id="rect166" />
        <rect
           x="72.513"
           y="209.74001"
           width="3.5553999"
           height="3.5553999"
           stroke-linecap="square"
           stroke-width="0.099263"
           style="paint-order:stroke fill markers"
           id="rect168" />
        <rect
           x="76.069"
           y="209.74001"
           width="3.5553999"
           height="3.5553999"
           stroke-linecap="square"
           stroke-width="0.099263"
           style="paint-order:stroke fill markers"
           id="rect170" />
        <rect
           x="79.612999"
           y="209.72"
           width="3.5553999"
           height="3.5553999"
           stroke-linecap="square"
           stroke-width="0.099263"
           style="paint-order:stroke fill markers"
           id="rect172" />
        <rect
           x="72.513"
           y="216.85001"
           width="3.5553999"
           height="3.5553999"
           stroke-linecap="square"
           stroke-width="0.099263"
           style="paint-order:stroke fill markers"
           id="rect174" />
        <rect
           x="76.069"
           y="216.85001"
           width="3.5553999"
           height="3.5553999"
           stroke-linecap="square"
           stroke-width="0.099263"
           style="paint-order:stroke fill markers"
           id="rect176" />
        <rect
           x="79.624001"
           y="213.28999"
           width="3.5553999"
           height="3.5553999"
           stroke-linecap="square"
           stroke-width="0.099263"
           style="paint-order:stroke fill markers"
           id="rect178" />
        <rect
           x="79.624001"
           y="216.85001"
           width="3.5553999"
           height="3.5553999"
           stroke-linecap="square"
           stroke-width="0.099263"
           style="paint-order:stroke fill markers"
           id="rect180" />
        <rect
           x="72.513"
           y="206.17999"
           width="3.5553999"
           height="3.5553999"
           stroke-linecap="square"
           stroke-width="0.099263"
           style="paint-order:stroke fill markers"
           id="rect182" />
        <rect
           x="76.069"
           y="206.17999"
           width="3.5553999"
           height="3.5553999"
           stroke-linecap="square"
           stroke-width="0.099263"
           style="paint-order:stroke fill markers"
           id="rect184" />
        <rect
           x="72.513"
           y="202.63"
           width="3.5553999"
           height="3.5553999"
           stroke-linecap="square"
           stroke-width="0.099263"
           style="paint-order:stroke fill markers"
           id="rect186" />
        <rect
           x="76.069"
           y="202.63"
           width="3.5553999"
           height="3.5553999"
           stroke-linecap="square"
           stroke-width="0.099263"
           style="paint-order:stroke fill markers"
           id="rect188" />
        <rect
           x="79.624001"
           y="206.17999"
           width="3.5553999"
           height="3.5553999"
           stroke-linecap="square"
           stroke-width="0.099263"
           style="paint-order:stroke fill markers"
           id="rect190" />
        <rect
           x="79.624001"
           y="202.63"
           width="3.5553999"
           height="3.5553999"
           stroke-linecap="square"
           stroke-width="0.099263"
           style="paint-order:stroke fill markers"
           id="rect192" />
        <rect
           x="83.18"
           y="213.28999"
           width="3.5553999"
           height="3.5553999"
           stroke-linecap="square"
           stroke-width="0.099263"
           style="paint-order:stroke fill markers"
           id="rect194" />
        <rect
           x="86.735001"
           y="213.28999"
           width="3.5553999"
           height="3.5553999"
           stroke-linecap="square"
           stroke-width="0.099263"
           style="paint-order:stroke fill markers"
           id="rect196" />
        <rect
           x="83.18"
           y="209.74001"
           width="3.5553999"
           height="3.5553999"
           stroke-linecap="square"
           stroke-width="0.099263"
           style="paint-order:stroke fill markers"
           id="rect198" />
        <rect
           x="86.735001"
           y="209.74001"
           width="3.5553999"
           height="3.5553999"
           stroke-linecap="square"
           stroke-width="0.099263"
           style="paint-order:stroke fill markers"
           id="rect200" />
        <rect
           x="83.18"
           y="216.85001"
           width="3.5553999"
           height="3.5553999"
           stroke-linecap="square"
           stroke-width="0.099263"
           style="paint-order:stroke fill markers"
           id="rect202" />
        <rect
           x="86.735001"
           y="216.85001"
           width="3.5553999"
           height="3.5553999"
           stroke-linecap="square"
           stroke-width="0.099263"
           style="paint-order:stroke fill markers"
           id="rect204" />
        <rect
           x="83.18"
           y="206.17999"
           width="3.5553999"
           height="3.5553999"
           stroke-linecap="square"
           stroke-width="0.099263"
           style="paint-order:stroke fill markers"
           id="rect206" />
        <rect
           x="86.735001"
           y="206.17999"
           width="3.5553999"
           height="3.5553999"
           stroke-linecap="square"
           stroke-width="0.099263"
           style="paint-order:stroke fill markers"
           id="rect208" />
        <rect
           x="83.18"
           y="202.63"
           width="3.5553999"
           height="3.5553999"
           stroke-linecap="square"
           stroke-width="0.099263"
           style="paint-order:stroke fill markers"
           id="rect210" />
        <rect
           x="86.735001"
           y="202.63"
           width="3.5553999"
           height="3.5553999"
           stroke-linecap="square"
           stroke-width="0.099263"
           style="paint-order:stroke fill markers"
           id="rect212" />
        <path
           d="m 82.442,215.1 a 1.0423,1.0423 0 0 1 -1.066,1.0097 1.0423,1.0423 0 0 1 -1.0179,-1.0581 1.0423,1.0423 0 0 1 1.0502,-1.0261 1.0423,1.0423 0 0 1 1.0342,1.0422"
           stroke-linecap="square"
           stroke-width="0.29779"
           style="paint-order:stroke fill markers"
           id="path214" />
        <path
           d="m 82.442,207.99 a 1.0423,1.0423 0 0 1 -1.066,1.0097 1.0423,1.0423 0 0 1 -1.0179,-1.0581 1.0423,1.0423 0 0 1 1.0502,-1.0261 1.0423,1.0423 0 0 1 1.0342,1.0422"
           stroke-linecap="square"
           stroke-width="0.29779"
           style="paint-order:stroke fill markers"
           id="path216" />
      </g>
      <path
         d="m 236.91,129.47 c 0.0286,0.26239 0.0362,0.49603 0.0288,0.7067 -0.29944,0.11522 -0.57761,0.21837 -0.57761,0.21837 l 0.0666,0.0749 0.501,-0.11865 c -0.0172,0.20923 -0.0505,0.39302 -0.0966,0.55229 l -0.12834,0.0439 0.005,0.0588 0.0918,-0.007 c -0.32462,0.95389 -1.099,0.99243 -1.099,0.99243 l 0.0206,0.0617 c 0.71569,-0.10285 1.1115,-0.57595 1.3307,-1.0726 l 0.82568,-0.0601 -0.18952,-0.1677 0.31743,-0.65754 c 0,0 -0.1583,-0.14016 -0.30073,-0.24464 -0.0258,0.0257 -0.19653,0.0991 -0.40491,0.18303 0.0247,-0.20946 0.0239,-0.34798 0.0239,-0.34798 z m 0.74905,0.7083 -0.0809,0.4761 -0.004,-0.004 -0.44918,0.15334 c 0.0673,-0.18676 0.11084,-0.36891 0.14058,-0.53229 z m -1.5346,0.058 c -0.0447,0.0115 -0.0206,0.006 -0.0447,0.0114 0.32769,0.61173 0.35702,0.98562 0.35702,0.98562 l 0.21667,-0.18953 c 0,0 -0.29218,-0.6486 -0.52899,-0.80748 z m 1.0642,0.77863 c 0,0 0.59226,0.53915 0.94901,0.98625 0.12784,-0.13478 0.26135,-0.29519 0.26135,-0.29519 0,0 -0.57612,-0.46567 -1.2104,-0.69106 z"
         id="path220" />
    </g>
  </g>
</svg>
