<?xml version="1.0" encoding="UTF-8" standalone="no"?>
<svg
   xmlns:dc="http://purl.org/dc/elements/1.1/"
   xmlns:cc="http://creativecommons.org/ns#"
   xmlns:rdf="http://www.w3.org/1999/02/22-rdf-syntax-ns#"
   xmlns:svg="http://www.w3.org/2000/svg"
   xmlns="http://www.w3.org/2000/svg"
   xmlns:sodipodi="http://sodipodi.sourceforge.net/DTD/sodipodi-0.dtd"
   xmlns:inkscape="http://www.inkscape.org/namespaces/inkscape"
   width="17.875664mm"
   height="17.874664mm"
   version="1.1"
   viewBox="0 0 17.875663 17.874665"
   id="svg78"
   sodipodi:docname="移動表示3.svg"
   inkscape:version="1.0.1 (3bc2e813f5, 2020-09-07)">
  <defs
     id="defs82" />
  <sodipodi:namedview
     pagecolor="#ffffff"
     bordercolor="#666666"
     borderopacity="1"
     objecttolerance="10"
     gridtolerance="10"
     guidetolerance="10"
     inkscape:pageopacity="0"
     inkscape:pageshadow="2"
     inkscape:window-width="1920"
     inkscape:window-height="1001"
     id="namedview80"
     showgrid="false"
     inkscape:zoom="2.5821878"
     inkscape:cx="231.21498"
     inkscape:cy="33.802685"
     inkscape:window-x="-9"
     inkscape:window-y="-9"
     inkscape:window-maximized="1"
     inkscape:current-layer="svg78" />
  <metadata
     id="metadata2">
    <rdf:RDF>
      <cc:Work
         rdf:about="">
        <dc:format>image/svg+xml</dc:format>
        <dc:type
           rdf:resource="http://purl.org/dc/dcmitype/StillImage" />
        <dc:title />
      </cc:Work>
    </rdf:RDF>
  </metadata>
  <g
     transform="translate(-36.339371,-18.270373)"
     id="g76">
    <g
       transform="translate(-145.78,-103.51)"
       id="g74">
      <g
         transform="translate(87.73,-103.94)"
         stroke="#000000"
         stroke-linecap="square"
         id="g70">
        <rect
           x="94.439003"
           y="236.44"
           width="3.5553999"
           height="3.5553999"
           fill="none"
           stroke-width="0.099263"
           style="paint-order:stroke fill markers"
           id="rect4" />
        <rect
           x="97.994003"
           y="236.44"
           width="3.5553999"
           height="3.5553999"
           fill="none"
           stroke-width="0.099263"
           style="paint-order:stroke fill markers"
           id="rect6" />
        <rect
           x="94.439003"
           y="232.88"
           width="3.5553999"
           height="3.5553999"
           fill="none"
           stroke-width="0.099263"
           style="paint-order:stroke fill markers"
           id="rect8" />
        <rect
           x="97.994003"
           y="232.88"
           width="3.5553999"
           height="3.5553999"
           fill="none"
           stroke-width="0.099263"
           style="paint-order:stroke fill markers"
           id="rect10" />
        <rect
           x="101.56"
           y="232.88"
           width="3.5553999"
           height="3.5553999"
           fill="#ff9955"
           stroke-width="0.099"
           style="paint-order:stroke fill markers"
           id="rect12" />
        <rect
           x="94.439003"
           y="239.99001"
           width="3.5553999"
           height="3.5553999"
           fill="none"
           stroke-width="0.099263"
           style="paint-order:stroke fill markers"
           id="rect14" />
        <rect
           x="97.994003"
           y="239.99001"
           width="3.5553999"
           height="3.5553999"
           fill="none"
           stroke-width="0.099263"
           style="paint-order:stroke fill markers"
           id="rect16" />
        <rect
           x="101.55"
           y="236.44"
           width="3.5553999"
           height="3.5553999"
           fill="none"
           stroke-width="0.099263"
           style="paint-order:stroke fill markers"
           id="rect18" />
        <rect
           x="101.55"
           y="239.99001"
           width="3.5553999"
           height="3.5553999"
           fill="none"
           stroke-width="0.099263"
           style="paint-order:stroke fill markers"
           id="rect20" />
        <rect
           x="94.439003"
           y="229.33"
           width="3.5553999"
           height="3.5553999"
           fill="none"
           stroke-width="0.099263"
           style="paint-order:stroke fill markers"
           id="rect22" />
        <rect
           x="97.994003"
           y="229.33"
           width="3.5553999"
           height="3.5553999"
           fill="none"
           stroke-width="0.099263"
           style="paint-order:stroke fill markers"
           id="rect24" />
        <rect
           x="94.439003"
           y="225.77"
           width="3.5553999"
           height="3.5553999"
           fill="none"
           stroke-width="0.099263"
           style="paint-order:stroke fill markers"
           id="rect26" />
        <rect
           x="97.994003"
           y="225.77"
           width="3.5553999"
           height="3.5553999"
           fill="none"
           stroke-width="0.099263"
           style="paint-order:stroke fill markers"
           id="rect28" />
        <rect
           x="101.55"
           y="229.33"
           width="3.5553999"
           height="3.5553999"
           fill="none"
           stroke-width="0.099263"
           style="paint-order:stroke fill markers"
           id="rect30" />
        <rect
           x="101.55"
           y="225.77"
           width="3.5553999"
           height="3.5553999"
           fill="none"
           stroke-width="0.099263"
           style="paint-order:stroke fill markers"
           id="rect32" />
        <rect
           x="105.1"
           y="236.44"
           width="3.5553999"
           height="3.5553999"
           fill="none"
           stroke-width="0.099263"
           style="paint-order:stroke fill markers"
           id="rect34" />
        <rect
           x="108.66"
           y="236.44"
           width="3.5553999"
           height="3.5553999"
           fill="none"
           stroke-width="0.099263"
           style="paint-order:stroke fill markers"
           id="rect36" />
        <rect
           x="105.1"
           y="232.88"
           width="3.5553999"
           height="3.5553999"
           fill="none"
           stroke-width="0.099263"
           style="paint-order:stroke fill markers"
           id="rect38" />
        <rect
           x="108.66"
           y="232.88"
           width="3.5553999"
           height="3.5553999"
           fill="none"
           stroke-width="0.099263"
           style="paint-order:stroke fill markers"
           id="rect40" />
        <rect
           x="105.1"
           y="239.99001"
           width="3.5553999"
           height="3.5553999"
           fill="none"
           stroke-width="0.099263"
           style="paint-order:stroke fill markers"
           id="rect42" />
        <rect
           x="108.66"
           y="239.99001"
           width="3.5553999"
           height="3.5553999"
           fill="none"
           stroke-width="0.099263"
           style="paint-order:stroke fill markers"
           id="rect44" />
        <rect
           x="105.1"
           y="229.33"
           width="3.5553999"
           height="3.5553999"
           fill="none"
           stroke-width="0.099263"
           style="paint-order:stroke fill markers"
           id="rect46" />
        <rect
           x="108.66"
           y="229.33"
           width="3.5553999"
           height="3.5553999"
           fill="none"
           stroke-width="0.099263"
           style="paint-order:stroke fill markers"
           id="rect48" />
        <rect
           x="105.1"
           y="225.77"
           width="3.5553999"
           height="3.5553999"
           fill="none"
           stroke-width="0.099263"
           style="paint-order:stroke fill markers"
           id="rect50" />
        <rect
           x="108.66"
           y="225.77"
           width="3.5553999"
           height="3.5553999"
           fill="none"
           stroke-width="0.099263"
           style="paint-order:stroke fill markers"
           id="rect52" />
        <path
           d="m 100.81,234.69 a 1.0423,1.0423 0 0 1 -1.066,1.0097 1.0423,1.0423 0 0 1 -1.0179,-1.0581 1.0423,1.0423 0 0 1 1.0502,-1.0261 1.0423,1.0423 0 0 1 1.0342,1.0422"
           fill="none"
           stroke-width="0.29779"
           style="paint-order:stroke fill markers"
           id="path54" />
        <path
           d="m 107.92,234.69 a 1.0423,1.0423 0 0 1 -1.066,1.0097 1.0423,1.0423 0 0 1 -1.0179,-1.0581 1.0423,1.0423 0 0 1 1.0502,-1.0261 1.0423,1.0423 0 0 1 1.0342,1.0422"
           fill="none"
           stroke-width="0.29779"
           style="paint-order:stroke fill markers"
           id="path56" />
        <path
           d="m 100.81,238.25 a 1.0423,1.0423 0 0 1 -1.066,1.0097 1.0423,1.0423 0 0 1 -1.0179,-1.0581 1.0423,1.0423 0 0 1 1.0502,-1.0261 1.0423,1.0423 0 0 1 1.0342,1.0422"
           fill="none"
           stroke-width="0.29779"
           style="paint-order:stroke fill markers"
           id="path58" />
        <path
           d="m 104.37,231.14 a 1.0423,1.0423 0 0 1 -1.066,1.0097 1.0423,1.0423 0 0 1 -1.0179,-1.0581 1.0423,1.0423 0 0 1 1.0502,-1.0261 1.0423,1.0423 0 0 1 1.0342,1.0422"
           fill="none"
           stroke-width="0.29779"
           style="paint-order:stroke fill markers"
           id="path60" />
        <path
           d="m 100.81,231.14 a 1.0423,1.0423 0 0 1 -1.066,1.0097 1.0423,1.0423 0 0 1 -1.0179,-1.0581 1.0423,1.0423 0 0 1 1.0502,-1.0261 1.0423,1.0423 0 0 1 1.0342,1.0422"
           fill="none"
           stroke-width="0.29779"
           style="paint-order:stroke fill markers"
           id="path62" />
        <path
           d="m 107.92,231.14 a 1.0423,1.0423 0 0 1 -1.066,1.0097 1.0423,1.0423 0 0 1 -1.0179,-1.0581 1.0423,1.0423 0 0 1 1.0502,-1.0261 1.0423,1.0423 0 0 1 1.0342,1.0422"
           fill="none"
           stroke-width="0.29779"
           style="paint-order:stroke fill markers"
           id="path64" />
        <path
           d="m 107.92,238.25 a 1.0423,1.0423 0 0 1 -1.066,1.0097 1.0423,1.0423 0 0 1 -1.0179,-1.0581 1.0423,1.0423 0 0 1 1.0502,-1.0261 1.0423,1.0423 0 0 1 1.0342,1.0422"
           fill="none"
           stroke-width="0.29779"
           style="paint-order:stroke fill markers"
           id="path66" />
        <path
           d="m 104.37,238.25 a 1.0423,1.0423 0 0 1 -1.066,1.0097 1.0423,1.0423 0 0 1 -1.0179,-1.0581 1.0423,1.0423 0 0 1 1.0502,-1.0261 1.0423,1.0423 0 0 1 1.0342,1.0422"
           fill="none"
           stroke-width="0.29779"
           style="paint-order:stroke fill markers"
           id="path68" />
      </g>
      <path
         d="m 190.78,129.21 c -0.016,0.24765 -0.055,0.4706 -0.10951,0.67084 -0.23827,0.0792 -0.4947,0.14928 -0.69307,0.16249 l 0.21197,0.20369 0.39193,-0.0926 c -0.33796,0.89059 -0.97189,1.2329 -0.97189,1.2329 l 0.002,0.0587 c 0.49575,-0.16969 0.98042,-0.86536 1.2742,-1.3634 l 0.73,-0.17239 -0.26605,-0.29105 c 0,0 -0.1099,0.0487 -0.26944,0.11207 0.0529,-0.10142 0.0894,-0.17528 0.0894,-0.17528 l -0.38905,-0.34606 z m 0.36298,1.1151 c -0.0514,0.0758 -0.0514,0.0674 -0.0514,0.0674 0.57035,0.28477 0.59779,0.33005 1.189,0.80651 l 0.24102,-0.36585 c 0,0 -1.2704,-0.50802 -1.3785,-0.50802 z m -0.27604,0.0425 c 0.0212,0.28309 0.0185,0.51958 0.003,0.71628 -0.18617,0.0778 -0.40828,0.14574 -0.65648,0.17176 0.0823,0.0352 0.21166,0.19399 0.21166,0.19399 l 0.42066,-0.15654 c -0.0671,0.44929 -0.20272,0.62093 -0.20272,0.62093 l 0.40736,0.31595 v -1.0131 l 0.6387,-0.23762 -0.23517,-0.23517 c 0,0 -0.15063,0.12735 -0.40353,0.25635 v -0.44162 z"
         id="path72" />
    </g>
  </g>
</svg>
